<svg xmlns="http://www.w3.org/2000/svg" width="340" height="389.999" id="lamborghini">
  <path fill="#f7de9f" d="M159.836 387.134c-5.506-3.093-21.234-15.187-33.724-25.932a355.867 355.867 0 0 1-55.175-59.613c-35-47.643-56.65-103.065-66.113-169.28-4.517-31.594-6.268-75.725-3.4-85.572a29.77 29.77 0 0 1 11.18-15.7c5.652-3.955 23.7-11.075 39.9-15.736C86.816 5.421 124.713.69 169.683.667c57.329-.028 104.249 7.624 143.833 23.457 14.133 5.653 19.36 9.707 23.44 18.172l2.683 5.562-.063 24.332c-.176 67.616-15.427 133.348-43.24 186.368-7.088 13.514-23.847 39.652-32.138 50.128a396.019 396.019 0 0 1-50.68 53.143c-11.885 10.236-29.473 23.58-34.348 26.06a20.235 20.235 0 0 1-19.332-.758Zm11.894-1.738a7.73 7.73 0 0 0-3.344 0c-.92.245-.167.445 1.672.445s2.592-.197 1.672-.442Zm-37.975-24.028a6.049 6.049 0 0 0-1.672-1.7c-1.516-1.211-1.55-1.177-.361.367 1.248 1.622 2.033 2.137 2.033 1.336Zm-5.733-4.816a16.665 16.665 0 0 0-2.627-2.676l-2.627-2.36 2.316 2.677c2.165 2.5 2.938 3.123 2.938 2.359Zm-13.375-12.818c-3.385-3.48-6.37-6.326-6.632-6.326s2.292 2.847 5.677 6.326 6.37 6.326 6.632 6.326-2.292-2.847-5.677-6.326Zm-14.33-14.6c-3.385-3.48-6.37-6.325-6.632-6.325s2.292 2.846 5.677 6.326 6.37 6.326 6.632 6.326-2.295-2.847-5.677-6.327Zm-8.6-9.562a16.621 16.621 0 0 0-2.626-2.677l-2.627-2.36 2.316 2.678c2.165 2.5 2.938 3.122 2.938 2.359Zm-5.731-6.831a10.652 10.652 0 0 0-2.15-2.19l-2.15-1.854 1.82 2.19c1.71 2.057 2.48 2.632 2.48 1.854Zm-3.822-4.868a10.705 10.705 0 0 0-2.15-2.19l-2.148-1.849 1.82 2.189c1.71 2.059 2.478 2.634 2.478 1.854Zm-3.821-4.9a6.049 6.049 0 0 0-1.672-1.7c-1.515-1.211-1.55-1.177-.361.367 1.248 1.62 2.033 2.137 2.033 1.336Zm-2.866-3.894a6.091 6.091 0 0 0-1.672-1.7c-1.515-1.21-1.55-1.176-.361.368 1.249 1.622 2.033 2.137 2.033 1.335Zm-2.866-3.892a6.049 6.049 0 0 0-1.672-1.7c-1.515-1.211-1.55-1.176-.36.367 1.247 1.62 2.032 2.137 2.032 1.336Zm-13.375-20.068c-.562-1.071-1.237-1.947-1.5-1.947s-.018.876.545 1.947 1.237 1.946 1.5 1.946.018-.875-.545-1.946Zm-2.867-4.867c-.562-1.07-1.237-1.946-1.5-1.946s-.018.876.545 1.946 1.237 1.947 1.5 1.947.018-.875-.545-1.947Zm-2.865-4.866c-.562-1.07-1.238-1.946-1.5-1.946s-.018.876.545 1.946 1.237 1.947 1.5 1.947.017-.876-.545-1.947Zm-8.805-16.992c-2.733-5.6-5.122-10.023-5.308-9.834-.423.43 9.18 20.014 9.814 20.014.257 0-1.771-4.581-4.506-10.18Zm-8.277-17.73c-1.126-1.972-1.4-1.34-.477 1.107.328.869.8 1.376 1.043 1.126s-.008-1.254-.566-2.232Zm91.777-168.38a1.892 1.892 0 0 0-1.831.078c-.317.323.247.553 1.254.51 1.113-.046 1.34-.277.577-.587ZM8.011 43.921c.326-.866.166-1.257-.375-.916a2.075 2.075 0 0 0-.945 1.51c0 1.4.684 1.092 1.32-.594Zm325.416.645a8.73 8.73 0 0 0-1.98-3.163l-1.98-2.3 1.709 3.163c1.77 3.279 2.25 3.769 2.25 2.3Zm-226.244-14.4a1.893 1.893 0 0 0-1.831.076c-.318.323.247.554 1.254.512 1.113-.046 1.34-.276.577-.587Zm41.38-1.282c.95-1.07 1.514-1.946 1.25-1.946a7.563 7.563 0 0 0-2.206 1.946c-.951 1.07-1.514 1.946-1.251 1.946a7.575 7.575 0 0 0 2.207-1.945Zm-24.183-.665a1.892 1.892 0 0 0-1.831.077c-.317.323.247.554 1.254.512 1.113-.047 1.339-.277.577-.59Zm114.644-18.49a1.893 1.893 0 0 0-1.831.076c-.317.324.246.554 1.254.512 1.113-.047 1.34-.283.577-.588Zm-7.643-.974a1.89 1.89 0 0 0-1.83.077c-.318.323.246.553 1.254.51 1.112-.046 1.338-.276.576-.587Zm-7.582-.953a3.627 3.627 0 0 0-2.39 0c-.656.27-.118.49 1.194.49s1.852-.22 1.196-.49Zm-94.642-.993a1.89 1.89 0 0 0-1.831.077c-.317.323.247.553 1.254.51 1.113-.046 1.339-.277.577-.587Zm83.636-.01a5.367 5.367 0 0 0-2.865.036c-.647.267.113.469 1.689.448s2.1-.237 1.176-.484Zm-65.442-1a24.968 24.968 0 0 0-5.732.01c-1.435.222-.03.4 3.122.394s4.328-.191 2.61-.408Zm50.635 0a24.968 24.968 0 0 0-5.732.01c-1.435.222-.031.4 3.122.394s4.323-.191 2.61-.408Z"></path>
  <path fill="#f9ce5c" d="M161.079 387.52c-17.1-9.15-57.066-45.363-77.851-70.551-52.894-64.1-79.285-141.551-82.867-243.2-.888-25.186.755-31.713 10.144-40.313C22.499 22.47 69.738 8.806 111.781 4.163c78.078-8.624 153.033-.529 206.568 22.31 14.964 6.385 20.77 14.884 21.557 31.554.517 10.936-1.18 43.628-3.174 61.194-12.286 108.2-56.725 190.1-137.95 254.247-17.022 13.444-21.076 15.827-27.6 16.225-4.39.267-6.323-.15-10.107-2.173Zm22.058-7.268c30.9-21.355 62.737-52.967 85.78-85.166 30.495-42.611 50.6-93.122 60.637-152.33 5.885-34.721 8.38-84.773 4.828-96.84-2.093-7.1-8.535-12.193-22.553-17.812-40.841-16.37-96.722-24.808-153.713-23.208-51.83 1.455-93.688 8.938-129.591 23.155-10.264 4.065-12.87 5.549-17.333 9.865-5.145 4.976-5.278 5.243-6.451 12.91-1.383 9.043-.1 43.935 2.452 66.625 12.39 110.192 57.67 192.367 141.436 256.683 13.133 10.084 16.483 11.939 21.559 11.939 3.962 0 5.59-.732 12.949-5.818Zm-22.651.8c-4.45-2.757-17-12.452-26.731-20.646-52-43.793-87.836-97.1-108.422-161.264-7.918-24.683-13.878-53.7-17.188-83.694-1.6-14.518-3.49-56.143-2.756-60.771 1.165-7.347 1.2-7.421 3.339-6.257 3.034 1.654 4.389-.305 2.376-3.436-1.24-1.927-1.37-2.94-.57-4.46 5.23-9.956 53.1-25.185 95.994-30.541 20.726-2.587 37-3.478 63.632-3.48 51.449 0 90.257 5.465 127.442 17.962 16.806 5.648 26.938 10.165 29.649 13.219 1.69 1.9 1.7 2.11.1 4.869-2.092 3.607-1.391 4.825 2.776 4.825 3.464 0 3.4-.11 4.672 7.642.785 4.778-1.145 47.17-2.843 62.433q-11.738 105.516-65.8 179.747c-21.232 29.147-53.85 61.329-82.612 81.507l-6.843 4.8-1.537-2.234c-1.3-1.9-2.123-2.154-5.433-1.7-2.143.293-4.373 1.2-4.954 2.006-.932 1.3-1.446 1.233-4.284-.525Zm-20.587-121.088c1.68-1.713 2.01-4.311.546-4.311a.959.959 0 0 0-.956.955c0 .525-1.075 1.229-2.388 1.565-2.392.61-2.945 1.455-1.751 2.67 1.073 1.1 2.972.728 4.549-.88Zm-25.25-12.64c0-.236-.43-.43-.955-.43a1 1 0 0 0-.956 1.03c0 .568.43.76.956.43s.956-.794.956-1.03Zm66.764-8.253a31.236 31.236 0 0 0-3.256-4.828c-.186 0 .818 2.34 2.23 5.2s2.88 5.035 3.256 4.829-.63-2.545-2.233-5.201Zm15.875-16.506c.34-.56-.331-.87-1.58-.73-1.713.19-2.3-.372-2.81-2.678-.6-2.724-.645-2.753-.751-.438-.17 3.755 3.522 6.517 5.14 3.846Zm-21.589-14.961c4.3-.827 5.824-2.243 5.824-5.413 0-2.847-2.78-7.644-2.836-4.893-.017.825-1.93 3.4-4.25 5.719s-4.44 5.08-4.71 6.132c-.44 1.714-.324 1.766 1.114.5a12.326 12.326 0 0 1 4.858-2.044Zm30.64-1.564c-6.328-.832-8.524-1.932-11.815-5.916-4.1-4.96-2.968-10.66 2.6-13.127l3.029-1.343-3.4-.038c-10.018-.112-10.18 13.985-.221 19.34 2.539 1.365 5.339 1.923 9.355 1.863l5.732-.085-5.278-.694Zm26.7-9.27c-.041-1.07-.292-1.4-.557-.728a2.585 2.585 0 0 1-2.312 1.216c-1.008 0-1.832.329-1.832.73s1.075.729 2.389.729c1.777 0 2.369-.5 2.312-1.946Zm-101.71-5.64c1.6-2.492 3.91-4.818 5.14-5.17 2.613-.744 9.063 1.146 12.8 3.752 3.757 2.619 8.628 3.246 10.2 1.314a5.566 5.566 0 0 1 3.777-1.586c2.414-.03 2.439-.086.656-1.46-1.151-.887-4.052-1.435-7.643-1.443-7.026-.018-10.094-1.458-12.045-5.658l-1.48-3.186-1.811 2.039c-2.567 2.89-5.6 2.182-6.227-1.454l-.5-2.92-2.953 4.38c-4.184 6.205-6.088 10.248-6.088 12.929 0 5.144 2.244 4.584 6.169-1.536Zm57.6-11.334c.978-.233-.113-6.678-1.65-9.746-1.438-2.875-2.632-3.922-5.015-4.4-9.4-1.893-11.721-4.785-10.854-13.522.659-6.653.594-6.81-4.52-10.692a17.878 17.878 0 0 1-4.69-5.1c-1.366-3.055-2.743-2.946-9.312.733-7.706 4.315-8.417 5.812-4.913 10.343a20.143 20.143 0 0 1 3.452 7.76c.363 2.31 1.178 4.136 1.846 4.136 1.764 0 3.413 4.38 3.413 9.065 0 3.463.659 4.875 4.2 9l4.2 4.889 11.8-1.2c6.492-.661 11.91-1.227 12.043-1.258Zm20.727-7.4c-1.295-3.505-3.656-11.5-5.248-17.763a123.767 123.767 0 0 0-7.246-20.392c-4.131-8.542-5.33-10.061-6.465-8.19-.63 1.04 4.38 13.62 7.985 20.053 1.519 2.71 3.9 9.524 5.28 15.146 1.452 5.884 3.564 11.768 4.98 13.868a22.36 22.36 0 0 0 2.764 3.65c.168 0-.755-2.868-2.05-6.372Zm-22.638-50.392c-4.952-4.131-2.437-7.168 3.613-4.36 1.93.9 2.408 1.7 2.074 3.48-.28 1.5-.106 1.98.49 1.372 1.716-1.747.3-4.545-3.186-6.28-6.26-3.117-9.472.554-4.567 5.22 1.635 1.557 3.248 2.813 3.587 2.795s-.566-1.022-2.011-2.227Zm39.935-5.98a18.649 18.649 0 0 0 1.38-5.6c0-2.977-3.193-8.147-5.915-9.591l-2.2-1.167 2.03 2.32c4.448 5.089 5.276 9.507 2.723 14.537-.9 1.78-1.066 2.87-.43 2.87.566 0 1.652-1.517 2.413-3.373Zm-70.09-22.93c-4.233-2.63-3.935-6.271.777-9.5 2.679-1.838 4.34-2.23 8.36-1.98 3.42.217 5.017-.052 5.017-.843 0-.64 2.04-1.82 4.537-2.626l4.537-1.467-5.732.51c-8.777.783-15.006 2.9-19.064 6.47-3.113 2.742-3.587 3.65-3.047 5.845a7.449 7.449 0 0 0 3.255 4.044c3.92 2.166 5 1.81 1.36-.45ZM31.394 69.034c-.318-19.115-.307-19.228 1.819-20.183 3.179-1.43 2.589-2.505-.728-1.327l-2.866 1.017v19.857c0 13.749.322 19.856 1.047 19.856s.952-5.735.728-19.221Zm157.614 18.367c.989-.64.876-.93-.506-1.3a3.3 3.3 0 0 0-2.984.838c-.98 1.069-.887 1.31.506 1.3a6.586 6.586 0 0 0 2.984-.838Zm118.4-38.957c1.467.563 2.189.6 1.652.077a9.406 9.406 0 0 0-3.1-1.587l-2.15-.661.219 20.26.218 20.262.279-19.677.279-19.677 2.607 1ZM48.249 77.309c.625-.624.13-.707-1.433-.24-3.735 1.114-8.6 3.25-8.6 3.777 0 .713 8.926-2.434 10.03-3.537Zm9.165-18.637c4.066-17.928 4.243-18.422 7.056-19.671l2.886-1.28-2.51-.038a4.925 4.925 0 0 0-3.467 1.178c-.951 1.209-9.842 38.59-9.726 40.89.129 2.546 1.742-3.357 5.76-21.08Zm232.18 17.246c-1.124-1.974-1.4-1.342-.475 1.105.327.87.8 1.377 1.043 1.126s-.008-1.254-.567-2.231Zm-13.02-37.063c1.286.25 2.11.08 1.834-.378s-1.555-.832-2.838-.832h-2.332l.218 19.708.218 19.709.28-19.332.28-19.331 2.34.456ZM70.169 71.274c-.36-1.952-.87-3.331-1.131-3.063s-.184 2.085.176 4.038.869 3.332 1.13 3.064.185-2.085-.175-4.038Zm12.294-17.227c.179-18.73.192-18.84 2.329-19.147 1.182-.171 2.149-.77 2.149-1.33 0-.582-.922-.768-2.15-.433a18.448 18.448 0 0 1-2.865.6c-.394.008-.716 9.065-.716 20.128s.242 19.868.537 19.567.617-9.024.716-19.385Zm181-18.628c2.4-.372 2.363-.415-.5-.55l-3.105-.146.217 19.708.219 19.709.279-19.16.28-19.158 2.607-.4ZM92.765 62.497c-1.344-3.966-2.593-7.057-2.776-6.87s.656 3.858 1.867 8.159 2.459 7.393 2.776 6.87-.523-4.193-1.867-8.16Zm154.425-4.17c-.2-2.543-.358-.463-.358 4.623s.162 7.165.358 4.623a72.4 72.4 0 0 0 0-9.246ZM104.138 59.38c0-5.71-.157-10.2-.35-9.976-.82.95-1.311 20.357-.516 20.357.477 0 .866-4.671.866-10.381Zm13.375-10.541V29.978l4.285-.654a34.713 34.713 0 0 1 7.642-.256c1.847.22 2.995.03 2.55-.422s-4.2-.692-8.357-.534l-7.552.287-.26 20.265c-.172 13.6.063 20.062.718 19.65.608-.383.974-7.7.974-19.475Zm115.38-18.105 2.608-.1-2.39-.724a6.115 6.115 0 0 0-3.1-.332c-.394.215-.618 9.234-.5 20.042l.219 19.65.28-19.221.28-19.223 2.608-.1Zm61.154 13.1c2.539.532 2.532.515-.268-.782l-2.866-1.328-.478 11.83c-.264 6.507-.264 12.487 0 13.29s.6-4.168.746-11.047l.268-12.507ZM147.729 62.92c-2.951-3.572-3.92-7.938-3.823-17.215.083-7.958 2.32-15.092 5.426-17.31a12.326 12.326 0 0 1 5.89-1.486c3.176-.024 3.544-.21 2.108-1.062-2.394-1.418-6.34-.245-9.507 2.824-6.733 6.525-7.413 27.81-1.11 34.739 3.147 3.46 3.957 3.07 1.016-.49Zm33.727-35.837c4.146.19 7.038.025 6.429-.37s-4.226-.725-8.034-.732l-6.927-.016.218 20.2.219 20.195.279-19.811.279-19.815 7.537.35Zm6.275 32.951c-.9-2.746-1.842-4.773-2.1-4.506s.256 2.733 1.15 5.479 1.843 4.773 2.1 4.506-.253-2.733-1.15-5.48Zm-56.77 1.39c2.263-2.085 2.457-8.017.352-10.694-1.435-1.824-1.452-1.816-.478.237 2.5 5.276.1 11-4.633 11.027a8.005 8.005 0 0 0-3.913 1.05c-1.071.775-.388.915 2.7.556 2.273-.265 4.96-1.244 5.97-2.175Zm71.913-.661c-2.146-4.176-2.883-17.8-1.278-23.641 1.64-5.966 5.782-9.5 10.59-9.03 1.964.19 3.364.01 3.115-.4s-2.181-.748-4.292-.748c-4.721 0-8.734 3.639-10.283 9.322-1.725 6.324-1.283 18.775.834 23.525 1.014 2.274 2.09 4.136 2.392 4.136s-.184-1.428-1.078-3.168Zm-136.165 1.34c1.039-.671 1-1.663-.22-5.581l-1.484-4.765.54 4.437c.483 3.963.3 4.555-1.69 5.53-2.026.993-2.055 1.1-.32 1.145a6.582 6.582 0 0 0 3.174-.766Zm150.129-1.036a8.5 8.5 0 0 0 .975-3.163c-.007-.7-.567-.186-1.244 1.152-.994 1.966-1.9 2.412-4.738 2.324-1.928-.06-3.277.27-3 .73 1.026 1.689 6.979.913 8.007-1.043Zm-57.051-2.984c1.2-2.441 1.67-5.751 1.67-11.68 0-10.4-1.855-14.938-6.29-15.378-1.751-.175-3.426.3-4.13 1.158-1.035 1.272-.807 1.309 1.838.293 2.723-1.045 3.193-.94 4.794 1.073 3.462 4.354 3.742 20.032.449 25.152-1.25 1.943-2.21 2.4-4.336 2.088-1.5-.225-2.5-.025-2.214.443s1.874.718 3.532.554c2.355-.231 3.383-1.043 4.687-3.7Zm-55.978-26.287a7.289 7.289 0 0 1 2.717-1.244c1.285-.314.935-.505-1.071-.581l-2.981-.112-3 10.462c-1.647 5.755-2.968 11.12-2.936 11.923s1.5-3.3 3.26-9.1 3.564-10.916 4.007-11.343Zm114.317 16.3 4.956-.354-5.494-.181c-5.427-.178-5.491-.147-5.363 2.5.108 2.22.2 2.312.538.535.346-1.817 1.157-2.195 5.363-2.5Zm-81.944.323a2.225 2.225 0 0 0-1.646-1.038c-.633 0-.561.559.192 1.483 1.31 1.609 2.482 1.25 1.454-.445Zm111.26-7.956v-7.895l2.628.62c1.949.463 2.258.368 1.195-.365a6.581 6.581 0 0 0-3.1-1c-1.455-.013-1.672 1-1.672 7.78v7.791l-5.016-.382c-3.9-.3-4.275-.223-1.672.34 7.87 1.7 7.643 1.9 7.643-6.893Zm-117.455 3.171c2.72-2.244 2.928-7.33.4-9.688-1.631-1.52-1.678-1.521-.572-.018 1.557 2.115 1.02 7.678-.834 8.644a34.539 34.539 0 0 1-4.777 1.7l-3.347.962 3.477.1a9.1 9.1 0 0 0 5.653-1.7Zm58.224-1.125c2.285-2.328 2.5-7.051.409-9.177-2.171-2.212-2.668-1.877-.941.634 3.322 4.832 1.232 8.459-5.521 9.583l-3.978.663 4.06.12c2.9.088 4.6-.432 5.97-1.823Zm28.283-6.55c-.318-.323-.544.252-.5 1.277.045 1.134.27 1.365.576.589a1.993 1.993 0 0 0-.071-1.864Z"></path>
  <path fill="#d8a016" d="M161.929 387.729c-11.49-5.582-41.565-30.913-61.624-51.9-54.728-57.267-85.266-125.005-96.473-213.995-1.49-11.83-3.813-47.411-3.821-58.54-.015-18.04 5.629-29.044 17.95-35 13.2-6.378 39.665-14.68 59.9-18.788 35.358-7.18 84.855-10.36 122.286-7.858 41.938 2.8 73.5 8.7 103.915 19.4 21.728 7.65 28.24 12.068 33.073 22.43 2.477 5.313 2.494 5.519 2.318 26.766-.726 87.3-23.391 164.306-66.39 225.56-20.206 28.787-48.848 58.177-79.7 81.785-16.484 12.613-22.406 14.523-31.437 10.135Zm20.783-6.836c22.519-15.314 57.968-48.694 75.638-71.224 18.95-24.163 39.105-59.036 49.217-85.16 15.543-40.16 24.26-81.266 27.758-130.9 1.169-16.577 1.22-39.571.1-44.482-.561-2.467-.484-3.721.242-3.968 1.4-.476-1.826-5.565-3.527-5.565-.686 0-2.287-1.14-3.561-2.53-8.988-9.815-55.23-23.6-97.376-29.03-30.626-3.943-82.147-4.437-112.733-1.078-47.034 5.164-97.2 19.42-107.388 30.52-1.525 1.662-3.09 2.822-3.475 2.58-4.94-3.11-4.88 43.158.107 83.237 10.95 88.019 42.353 156.13 98.3 213.205 19.727 20.125 43.717 40.35 56.618 47.733 6.928 3.965 10.133 3.432 20.085-3.336Zm-18.04-4.895c-2.172-1.288-8.373-5.754-13.777-9.924s-10.392-7.58-11.083-7.58-2.66-1.272-4.374-2.828l-3.117-2.827 3.583 2.618c4.817 3.52 4.555 2.537-.406-1.524-2.194-1.8-3.673-2.745-3.287-2.11 1.59 2.623-1.19.879-4.711-2.955-2.077-2.262-2.7-3.25-1.388-2.2s-4.718-5.528-13.4-14.624c-15.312-16.034-29.954-33.678-39.57-47.682-5.48-7.98-6.926-9.688-5.356-6.326l1.137 2.434-1.958-2.434c-1.077-1.338-1.755-3-1.508-3.7s.043-1.011-.454-.7c-.956.6-4.115-4.74-3.3-5.574.263-.268-1.64-4.455-4.225-9.3a391.034 391.034 0 0 1-18.285-39.36c-2.988-7.36-5.69-13.12-6.005-12.8s-.348-.446-.076-1.7c.324-1.494.2-1.867-.356-1.076-1.208 1.716-4.434-7.748-3.63-10.652.5-1.8.412-1.955-.456-.777-.838 1.137-.945.706-.482-1.946.469-2.692.362-3.1-.51-1.946-.936 1.237-1.018 1.189-.538-.318.31-.978-.483-6.014-1.765-11.192-6.216-25.103-12.696-69.769-13.016-89.711-.05-3.068-.288-3.812-.8-2.485-.674 1.755-.774 1.719-1.353-.486a39.906 39.906 0 0 1-.638-7.491c-.02-7.745-1.892-6.748-3.2 1.7-.207 1.339-.428-4.136-.492-12.165s.2-15.037.586-15.572 1.986-.974 3.555-.974q5.157 0 2.086-6.287c-1.338-2.732-1.28-3.016 1.124-5.5 2.442-2.525 11.443-7.228 16.388-8.562 2.308-.623 2.3-.594-.24.88-1.444.84-2.626 1.952-2.626 2.47 0 1.206-.026 1.209 4.777-.518 4.84-1.74 6.07-1.83 5.19-.382-.426.7-.03.878 1.139.5a404.81 404.81 0 0 1 56.729-14.178c8.789-1.51 14.918-2.964 13.853-3.286s.239-.36 2.866-.092c3.649.372 4.438.23 3.344-.6s-.18-.97 3.82-.6c2.89.263 14.5.1 25.8-.36 38.09-1.552 53.984-1.891 52.795-1.125-.65.419 5.2 1.3 12.994 1.95 17.32 1.452 43.715 5.292 58 8.438 5.837 1.285 11.649 2.1 12.916 1.816 1.882-.426 2.04-.315.869.6s-1.07 1.018.636.53c2.47-.7 7.19.345 6.52 1.449-.26.429.456.532 1.59.229 1.5-.4 1.858-.215 1.315.682-.557.917-.2 1.054 1.4.536 1.376-.445 1.933-.336 1.546.3-.347.572 1.535 1.717 4.419 2.688 9.537 3.21 20.317 8.334 23.02 10.94 5.674 5.47 5.9 6.61 5.692 28.177-.165 16.729-2.016 46.463-3.65 58.625-.514 3.825-.225 3.17 2.582-5.84a43.856 43.856 0 0 1 2.8-7.38c.454-.58 1.238-3.427 1.743-6.326.872-5 .894-4.9.417 2.027-3.343 48.583-19.85 106.425-42.024 147.27-18.878 34.759-46.148 69.169-72.99 92.091l-6.2 5.292 4.346-4.8a40.62 40.62 0 0 0 5.9-8.342 38.107 38.107 0 0 1 4.682-7.3l3.126-3.763-3.3 2.973a1537.39 1537.39 0 0 0-9.506 8.7c-7.467 6.885-26.814 22.69-35.518 29.019-7.925 5.758-10.572 6.307-15.724 3.252Zm-24.23-115.478c4.052-4.128 1.614-7.052-3.084-3.7-1.72 1.228-3.294 2.33-3.5 2.454-.775.462 2.1 3.19 3.358 3.19a6.305 6.305 0 0 0 3.226-1.947Zm-25.206-14.632c.079-1.587-.164-2.887-.54-2.887-1.3 0-3.167 4.74-2.534 6.424.917 2.433 2.892.16 3.074-3.537Zm70.008-.585c1.752-.89 1.93-1.292.862-1.954a16.292 16.292 0 0 1-3.378-4.24c-2.523-4.227-6.006-8.086-6.68-7.4-.277.283.9 2.736 2.606 5.452 2.566 4.074 3.022 5.6 2.61 8.734-.553 4.2.42 6.366 1.25 2.788a5.868 5.868 0 0 1 2.73-3.38Zm50.72-1.571a5.937 5.937 0 0 0-.835-2.537c-1.05-1.688-2.433.27-1.652 2.34.65 1.729 2.507 1.876 2.488.2Zm-38.2-21.238c0-.46-.86-1.3-1.91-1.877a3.524 3.524 0 0 1-1.91-2.467c0-.784-.43-1.426-.956-1.426-1.637 0-1.075 5.674.659 6.663s4.116.472 4.116-.893Zm-75.214-13.56.52-5.354-1.478 3.407a30.584 30.584 0 0 0-1.823 8.272c-.337 4.789-.322 4.82.959 1.946a33.551 33.551 0 0 0 1.822-8.271Zm50.18 6.18c.239-1.644.99-1.93 4.914-1.87 5.357.08 8.2-1.911 9.172-6.437a4.849 4.849 0 0 0-1.385-5.08c-1.1-1.2-3.676-5.575-5.711-9.727-4.191-8.547-4.023-8.91 3.754-8.147 2.6.255 4.736.16 4.736-.211 0-1.276 4.875-2.933 8.635-2.933 2.734 0 4.1.534 4.962 1.946a3.82 3.82 0 0 0 2.636 1.917c1.143-.023 1.1-.235-.23-1.021-2.973-1.764-1.771-2.943 1.334-1.31 2.316 1.222 2.7 1.78 1.672 2.444-.977.63-.694.856 1.055.847 2.385-.014 2.385-.018-.731-2.9-2.382-2.207-4.036-2.892-6.99-2.892a15.1 15.1 0 0 1-5.716-1.007c-2.267-1.236-2.56-4.345-.326-3.473a33.586 33.586 0 0 0 4.06 1.146l2.539.55-2.39-2.14a18.453 18.453 0 0 0-5.015-3.082c-3.151-1.132-3.428-3.434-.544-4.521 1.963-.74 1.922-.82-.717-1.377a6.892 6.892 0 0 1-4.471-3.641c-1.473-2.687-2.017-2.972-4.576-2.4-3.264.73-7.6-1.51-7.6-3.923a6.815 6.815 0 0 1 2.012-3.486l2.012-2.05-1.846-5.98c-1.766-5.725-2.07-6.09-7.133-8.574-7.844-3.85-8.115-7.066-1.01-11.985 4.3-2.976 7.67-3.094 12.763-.448a12.5 12.5 0 0 1 6.577 11.457c0 1.882 1.723 5.2 5.19 9.987 5.386 7.436 7.616 13.114 7.069 17.995-.26 2.313-.85 2.92-3.184 3.274-2.52.382-2.347.5 1.434.974 3.594.45 4.538 1.027 5.762 3.52 1.966 4.005 6.634 9.967 6.646 8.49a34.019 34.019 0 0 0-1.98-6.326c-1.1-2.83-3.475-10.84-5.287-17.8a130.143 130.143 0 0 0-7.323-20.87c-2.216-4.521-4.171-8.571-4.347-9s.562-.785 1.639-.785c3.166 0 8.547 5.625 12.63 13.206 4.019 7.457 7.254 10.47 10.708 9.97 1.8-.262 2.068-.863 1.92-4.345-.2-4.673-3.318-11.487-6.06-13.231-2.783-1.771-2.31-2.68 1.4-2.68 3.3 0 5.189-1.307 3.463-2.394a66.883 66.883 0 0 0-8.026-2.432 123.132 123.132 0 0 1-16.77-6.363c-5.865-2.74-10.368-4.286-11.455-3.935-.985.318-4.112 2.647-6.948 5.175-7.833 6.98-14.026 11.318-20.874 14.617-11.491 5.535-13.854 9.432-16.617 27.4-.861 5.6-1.91 10.412-2.332 10.706-1.794 1.25-10.833 14.14-12.125 17.289-1.7 4.142-1.764 6.205-.3 9.478 1.382 3.09 4.908 3.3 6.9.4 2.21-3.215 4.435-1.73 3.759 2.51-.36 2.254-.174 3.458.53 3.458 1.692 0 4.934-3.733 6.449-7.427 1.813-4.421 3.575-4.96 7.976-2.44 4.588 2.627 9.959 2.688 13.129.148 1.327-1.063 2.762-1.714 3.189-1.444 1.04.655 2.342-1.515 2.342-3.9 0-2.625 2.97-3.034 4.256-.586a3.408 3.408 0 0 1-.138 3.907c-1.69 2.758-.15 3.7 3.016 1.852l2.71-1.585.4 3.534c.363 3.172-.063 4-4.16 8.065-5.045 5.006-6.413 8.507-4.764 12.194 1.239 2.77 3.31 2.608 3.735-.292Zm-37.065-20.357c0-2.892 1.56-6.262 2.9-6.262 1.323 0 1.14 6.2-.225 7.59-1.792 1.831-2.675 1.393-2.675-1.324Zm12.886-12.74a13.214 13.214 0 0 1-2.442-3.917c-1.258-3.37-3.495-3.82-6.19-1.241-2.821 2.7-3.916 1.967-2.554-1.715a83.539 83.539 0 0 0 2.145-11.865c1.793-14.381 5.867-16.752 9.13-5.314.82 2.874 2.1 5.852 2.856 6.616s1.365 3.147 1.365 5.294c0 3.156.732 4.766 3.822 8.4a38.8 38.8 0 0 1 3.82 4.927c0 .237-2.332.428-5.185.428-3.552 0-5.684-.51-6.767-1.612Zm38.226-61.145c-2.3-1.932-2.6-2.584-1.52-3.312 2.646-1.78 8.523 2.119 6.654 4.414-1.437 1.766-1.813 1.685-5.134-1.1Zm28.344 85.368c.934-.95-.262-1.2-5.748-1.2-10.45 0-15.43-3.477-15.43-10.77 0-8.025 10.035-10.24 12.588-2.778.535 1.564 1.377 2.845 1.869 2.845.525 0 .486-.78-.094-1.883-1.615-3.076-1.16-3.951 2.116-4.071 2.323-.085 1.825-.33-1.977-.975a30.933 30.933 0 0 1-6.863-1.833c-3.9-2.126-10.427-.713-13.1 2.838-3.355 4.45.555 13.654 7.373 17.36 3.64 1.979 5.355 2.285 11.2 2 3.787-.18 7.419-.869 8.066-1.529Zm19.345-6.2a7.989 7.989 0 0 1-.772-3.083 2.794 2.794 0 0 0-1.43-2.427c-.806-.273-1.064-.018-.66.649s-.055 1.1-1.2 1.1a2.694 2.694 0 0 0-2.415 1.46c-.41 1.09.152 1.46 2.23 1.46 1.529 0 3.045.438 3.37.973s.806.974 1.067.974.176-.5-.192-1.106Zm-3.845-24.763c.715-1.9-.35-9.168-1.34-9.168-1.52 0-2.61 8.685-1.264 10.057 1.046 1.065 1.99.742 2.6-.89Zm-98.756-5.426c2.09-3.295 3.795-6.471 3.789-7.057s-1.073.826-2.371 3.14-3.256 5.487-4.353 7.056-1.74 2.852-1.43 2.852 2.274-2.7 4.365-5.991Zm101.69-21.473c-.677-4.083-2.131-5.6-3.4-3.562-1.41 2.268-.953 7.573.809 9.406 1.6 1.669 1.7 1.66 2.438-.217a13.5 13.5 0 0 0 .154-5.627Zm-96.356 1.456c-.317-.323-.543.252-.5 1.277.046 1.134.272 1.364.577.588a2 2 0 0 0-.076-1.865Zm7.543-13.888c.95-1.071 1.515-1.947 1.25-1.947a7.6 7.6 0 0 0-2.206 1.947c-.951 1.07-1.514 1.946-1.251 1.946a7.575 7.575 0 0 0 2.206-1.948Zm84.107-22.72c1.263-6.853-4.858-14.324-12.948-15.8-3.311-.606-3.306-.6.964 1.682 7.517 4.013 10.9 12.633 7.117 18.135-.818 1.19-1.18 2.674-.8 3.3 1.018 1.676 4.948-3.39 5.669-7.308Zm-57.356 5.2c.95-1.07 1.514-1.946 1.25-1.946a7.556 7.556 0 0 0-2.206 1.947c-.951 1.07-1.514 1.946-1.251 1.946a7.575 7.575 0 0 0 2.207-1.946Zm6.206-5.354c.654-.8.975-1.46.712-1.46s-1.013.657-1.667 1.46-.975 1.46-.711 1.46 1.014-.658 1.666-1.46Zm-16.718-18.57c-8.25-3.02-8.662-8.655-.855-11.692 3.78-1.471 6.182-1.427 10.319.19 1.01.4 1.52.06 1.52-.992 0-2.1 3.756-3.464 9.856-3.584 3.914-.076 4.452-.261 2.564-.876-9.792-3.195-27.863 1.879-31.98 8.979l-1.751 3.02 3.477 3.247c2.706 2.525 4.275 3.23 7.074 3.177l3.6-.068-3.821-1.4ZM31.529 68.834c0-16.261.226-19.392 1.433-19.863 1.24-.485 1.433 1.729 1.433 16.44 0 18.888-.351 18.072 6.688 15.542 4.67-1.68 5.732-1.793 5.732-.617 0 .464-3.245 2.049-7.211 3.522s-7.043 2.85-6.837 3.06 3.63-.813 7.61-2.271c6.4-2.347 7.282-2.966 7.629-5.375.43-2.99.037-3-6.8-.148-6.152 2.565-5.968 3.075-5.658-15.69.155-9.367.238-17.032.185-17.031s-1.45.482-3.1 1.069l-3.014 1.07v20.4c0 13.354.33 20.193.955 19.8.584-.37.955-8.086.955-19.906Zm158.433 18.568c.954-.616.723-.971-.921-1.408-1.208-.322-2.431-.2-2.716.272s-2.021 1.042-3.855 1.268c-2.682.329-2.4.438 1.44.55 2.628.078 5.35-.23 6.052-.682Zm115-20.188-.28-19.1 2.669.672c3.15.793 1.93-.833-1.394-1.856l-2.15-.661v20.022c0 11.009.323 20.018.718 20.018s.593-8.593.44-19.095Zm-18.463-.26c-3.24-8.117-6.064-14.583-6.275-14.37s1.832 6.029 4.537 12.92 5.316 13.576 5.8 14.855 1.1 2.106 1.356 1.84-2.176-7.125-5.418-15.244Zm-228.708 7.9c.9-6.145 1.259-6.784 4.14-7.483a103.01 103.01 0 0 0 4.155-1.1c1.274-.385 1.814.59 2.68 4.843l1.086 5.32 2.907-1.03c3.377-1.2 3.6 1.019-2.28-22.25l-4.08-16.12-2.94.776c-2.757.729-3.04 1.243-4.57 8.336-.9 4.157-3.051 13.736-4.785 21.287L50.955 81.16l3.1-.968c2.73-.855 3.172-1.485 3.739-5.337Zm-3 .219c-.311-.826-.352-1.72-.091-1.985s.7.41.984 1.5c.593 2.321-.069 2.679-.896.485Zm.7-4.744c-.042-1.025.185-1.6.5-1.277a1.988 1.988 0 0 1 .075 1.865c-.304.777-.531.546-.576-.583Zm1.91-8.758c-.042-1.026.185-1.6.5-1.277a1.99 1.99 0 0 1 .076 1.865c-.304.775-.531.545-.578-.588Zm3.838-2.272a50.315 50.315 0 0 1 1.248-7.542l1.156-4.866 1.195 6.72c.976 5.492.966 6.87-.053 7.529-2.366 1.527-3.641.866-3.547-1.841Zm-2.882-1.622c-.042-1.025.184-1.6.5-1.277a1.993 1.993 0 0 1 .075 1.865c-.304.777-.533.546-.576-.588Zm1.487-5.92c1.082-6.516 2.31-9.36 1.682-3.894a22.879 22.879 0 0 1-1.443 6.326c-.577.952-.66.1-.24-2.432Zm2.272-10.463c-.01-1.145.69-1.678 2.135-1.626s1.674.26.717.632a5.184 5.184 0 0 0-2.135 1.627c-.434.66-.708.418-.717-.633Zm213.033 16.44V38.888l2.627.428c2.054.334 2.314.2 1.194-.606a7.252 7.252 0 0 0-3.582-1.05l-2.15-.015V57.11c0 12.328.35 19.465.955 19.465s.956-6.93.956-18.841ZM85.587 72.681c1.1 0 1.38-2.474 1.485-12.895.07-7.093.319-11.8.55-10.463.67 3.878 6.162 21.818 6.944 22.688.39.436.987-.88 1.325-2.92s2.1-8.31 3.91-13.93l3.295-10.22-.561 12.747-.561 12.746 2.956-.441 2.956-.442.276-19.848.276-19.848h-3.012c-2.908 0-3.084.245-5.118 7.058-1.158 3.88-2.85 10.036-3.758 13.678l-1.653 6.62-3.498-11.122c-1.925-6.117-3.5-11.615-3.5-12.217 0-1.22-1.324-1.36-4.538-.481-2.141.584-2.15.67-2.15 20.529 0 17.785.165 19.878 1.512 19.352a9.543 9.543 0 0 1 2.866-.59Zm175.43-18.12-.28-19.094 2.43.62c1.336.342 2.429.225 2.429-.26s-1.29-1.074-2.866-1.311l-2.867-.428v19.783c0 10.88.322 19.784.717 19.785s.59-8.592.437-19.094Zm-13.825 2.306c-.192-2.811-.351-.511-.351 5.109s.158 7.92.35 5.109a89.307 89.307 0 0 0 0-10.218Zm-118.153 9.897c5.209-1.335 7.823-4.8 8.33-11.036.378-4.63.14-5.586-1.9-7.662-2.273-2.315-2.287-2.423-.59-4.558 2.673-3.362 2.339-10.206-.646-13.247-2.213-2.254-2.95-2.407-10.271-2.146l-7.886.283-.258 20.054-.258 20.055 5.035-.436a64.725 64.725 0 0 0 8.44-1.307Zm-7.705-11.114v-6.326h3.673c4.407 0 6.835 2.308 6.835 6.495 0 3.836-2.64 6.157-7 6.157h-3.507V55.65Zm.38-12.558a20.041 20.041 0 0 1-.2-5.58c.268-3.8.57-4.28 2.879-4.551 4.143-.486 6.5 1.355 6.5 5.085s-1.131 4.92-5.53 5.77c-2.211.428-3.29.213-3.643-.724Zm109.487 6.6c0-18.612.048-19.08 1.91-18.583 1.052.28 1.91.163 1.91-.26 0-.688-3.161-1.921-5.015-1.955-.4-.008-.717 8.965-.717 19.938 0 12.652.35 19.95.956 19.95s.954-7.006.954-19.085Zm62.843-5.732c2.578.5 2.575.49-.266-.87l-2.866-1.371-.271 11.24c-.243 10.117-.411 11.058-1.678 9.4-1.287-1.688-1.322-1.6-.418 1.074 2.1 6.189 2.374 5.446 2.633-7.067l.267-12.907 2.6.5Zm-76.217 22.294c1.565-.98 1.729-1.257.478-.808a53.807 53.807 0 0 1-5.254 1.415c-3.287.718-3.295.73-.48.808a11.121 11.121 0 0 0 5.256-1.415Zm-58.46-1.384c3.834-2.381 5.817-6.89 6.55-14.9 1.522-16.585-5.927-28.06-15.28-23.538-4.8 2.32-7.543 8.433-8.088 18.033-1 17.543 6.6 26.75 16.819 20.4Zm-8.347-5.744c-3.93-4-3.984-20.643-.081-24.875 2.914-3.16 5.28-3.1 7.4.188 1.324 2.059 1.694 4.67 1.694 11.965s-.37 9.906-1.694 11.966c-1.991 3.094-4.74 3.378-7.314.756Zm42.923 5.73c0-.436-1.237-4.353-2.75-8.705l-2.748-7.917 2.265-1.512c5.13-3.425 4.975-14.565-.263-18.763-2.035-1.631-3.875-2-10.008-2h-7.515v39.91h2.388c2.37 0 2.389-.065 2.389-8.76v-8.76l2.628.01c2.48.012 2.779.518 5.353 9.064 2.689 8.935 2.76 9.046 5.493 8.638 1.522-.227 2.768-.77 2.768-1.205Zm-4.115-.691c-.223-.4-1.573-4.343-3-8.76l-2.6-8.028h-3.739c-2.362 0-3.74-.45-3.735-1.217.006-.807 1.789-1.27 5.293-1.373 2.907-.087 5.87-.652 6.586-1.257 3.54-2.992 2.356-10.567-1.965-12.572-2.836-1.316-8.64-1.453-9.387-.222-.293.483-.616 5.727-.72 11.653s-.425 10.53-.717 10.234-.747-5.98-1.01-12.628l-.478-12.088h6.715c7.81 0 10.293 1.32 11.918 6.334 1.492 4.609.423 8.759-2.951 11.449l-2.8 2.234 2.814 8.484c2.146 6.467 2.5 8.483 1.5 8.483a2.128 2.128 0 0 1-1.721-.728Zm-11.736-22.021a23.406 23.406 0 0 1-.21-6.083c.286-4.561.415-4.754 3.387-5.046 6.17-.607 10.49 7.588 5.774 10.954-2.641 1.884-8.266 1.993-8.951.175Zm28.407 22.233c-3.732-3.2-5.225-7.98-5.3-17-.086-9.741 2.277-16.23 6.575-18.06a9.374 9.374 0 0 1 11.782 3.947c.594 1.07 1.094 1.365 1.109.655s-1.228-2.572-2.764-4.137c-2.142-2.182-3.67-2.845-6.56-2.845-8.276 0-12.065 7.1-11.5 21.562.389 9.964 2.437 15.943 5.958 17.394 3.477 1.434 3.668 1.023.706-1.516Zm9.71-1.867c3.344-3.4 2.724-11.24-.888-11.24a1.459 1.459 0 0 1-1.316-1.563c0-1.026.52-1.361 1.51-.974a12.646 12.646 0 0 0 3.773.59c2.045 0 2.293.487 2.61 5.11l.35 5.11.179-6.083.176-6.083h-5.254c-4.93 0-5.255.146-5.255 2.368 0 1.86.563 2.435 2.628 2.677 2.306.27 2.586.665 2.29 3.228-.495 4.307-1.853 6.329-4.235 6.3-3.544-.036-6.37-3.056-7.276-7.777-.571-2.973-.873-3.533-.944-1.754-.322 8.009 7.254 14.568 11.653 10.086Zm5.254-1.047c-.294-.3-.828.24-1.187 1.2-.52 1.388-.41 1.5.535.545.653-.66.946-1.445.652-1.745Zm25.979-20.47c0-7.12.04-7.241 2.445-7.241 1.387 0 2.189-.421 1.854-.973-.324-.535-1.64-.974-2.922-.974-2.278 0-2.332.18-2.332 7.786 0 5.61-.334 7.77-1.194 7.728-.657-.031-3.236-.4-5.731-.818s-4.54-.42-4.54 0 2.044 1.04 4.54 1.382 4.967.749 5.492.9c1.982.578 2.388-.748 2.388-7.79Zm-41.584-1.7a12.227 12.227 0 0 1 2.467-5.6c1.02-1.041 1.438-1.893.925-1.893-1.688 0-4.01 4.715-4.413 8.966-.46 4.808.128 3.96 1.02-1.477Zm11.968-1.116c0-1.312-2.33-5.354-3.306-5.736-.756-.295-.633.655.367 2.835 1.276 2.776 2.939 4.419 2.939 2.9Zm3.82-1.475c0-.52-.644-.69-1.432-.382s-1.433.732-1.433.942.645.383 1.433.383 1.433-.425 1.433-.943Zm-196.3-2.762c-.294-.3-1.065 0-1.713.664-.937.96-.827 1.073.535.545.942-.365 1.472-.91 1.178-1.21Z"></path>
  <path fill="#9f6b08" d="M167.741 389.071c-3.6-.5-6.034-1.691-11.178-5.446a469.03 469.03 0 0 1-45.248-37.056c-5.006-4.7-16-16-19.865-20.412-15.79-18.033-28.888-36.515-44.927-63.388-3.536-5.923-7.85-14.771-13.738-28.186C13.658 191.023 3.669 147.047.722 93.428.149 82.99-.041 74.942.007 63.118c.04-9.777.088-10.951.555-13.531a35.075 35.075 0 0 1 4.67-12.626c2.567-3.854 9.53-9.413 15.107-12.061 7.877-3.741 27.063-9.535 44.352-13.4 4.694-1.048 13.954-2.943 17.1-3.5.92-.162 2.857-.51 4.3-.77q2.146-.389 4.3-.7c.92-.125 2.427-.386 3.347-.58s2.642-.48 3.825-.632 3.658-.487 5.5-.742q2.21-.31 4.423-.594c5.772-.692 7.642-.908 11.477-1.325A501.763 501.763 0 0 1 182.92.19c8.189.282 26.768 1.355 28.238 1.63.408.077 2.237.224 4.064.327s4.829.373 6.669.6 4.8.574 6.576.775c8.327.946 15.557 1.887 18.648 2.427 1.118.195 4.076.684 6.575 1.085 26.313 4.226 48.1 10.384 64.315 18.176 7.013 3.37 9.814 5.266 13.223 8.938a29.613 29.613 0 0 1 7.582 14.49c1.055 4.818.58 34.834-.85 53.9a424.008 424.008 0 0 1-10.87 70.809 376.58 376.58 0 0 1-25.77 72.512 151.474 151.474 0 0 1-8.317 16.182c-1.766 3.01-3.264 5.586-3.33 5.723s-.442.74-.837 1.343-.847 1.31-1 1.576-.75 1.249-1.316 2.187-1.07 1.812-1.123 1.946a1.068 1.068 0 0 1-.244.365c-.082.066-.621.888-1.2 1.825q-.961 1.555-1.968 3.08a7.9 7.9 0 0 0-.918 1.622.377.377 0 0 1-.18.326 8.888 8.888 0 0 0-1.494 2.36c0 .123-.161.287-.358.363s-.358.252-.358.388a13.608 13.608 0 0 1-1.314 2.18 13.886 13.886 0 0 0-1.316 2.168c0 .129-.16.3-.357.375a.6.6 0 0 0-.36.513c0 .2-.09.372-.2.372s-.352.3-.538.67a9.106 9.106 0 0 1-.521.912c-.8 1.075-1.78 2.45-3.523 4.978-1.71 2.475-3.524 5-5.955 8.283-21.521 29.074-44.03 50.908-79.383 77.008-5.16 3.81-7.58 5.168-10.59 5.947a20.737 20.737 0 0 1-6.884.52Zm6.118-2.207c2.979-.77 5.453-2.137 10.176-5.623 45.158-33.325 70.39-60.426 99.15-106.493 7.73-12.383 11.478-18.94 14.553-25.462a416.525 416.525 0 0 0 19.349-47.471c12.038-36.29 18.536-74.663 20.17-119.11.386-10.434.313-30.65-.116-33.16a29.1 29.1 0 0 0-11.38-17.937c-2.208-1.667-10.044-5.7-15.052-7.747-14.84-6.067-31.81-10.622-54.025-14.5-13.045-2.277-30.08-4.375-46.5-5.726-1.71-.14-3.7-.31-4.424-.375-2.234-.2-12.737-.825-18.768-1.11-11.51-.544-32.376-.263-46.982.634-38.22 2.345-80.155 10-108.907 19.888-7.915 2.72-10.73 3.99-14.816 6.686-6.641 4.376-9.669 7.706-11.852 13.035-2.556 6.241-3.012 11.506-2.626 30.341a494.389 494.389 0 0 0 4.665 62.049c5.513 38.809 15.173 71.56 31.686 107.428 6.423 13.952 8.27 17.32 18.487 33.7 2.526 4.05 9.4 14.436 12.239 18.5 19.25 27.512 37.884 47.387 65.645 70.013 7.209 5.876 24.358 18.9 27.255 20.692a22.373 22.373 0 0 0 5.117 1.995 18.461 18.461 0 0 0 6.956-.247Zm-6.43-9.82c-1.46-.418-4.783-2.737-11.577-8.081-41.732-32.817-65.3-58.508-88.817-96.826-3.148-5.13-7.347-12.308-10.176-17.4s-11.818-24.132-16.312-34.553c-15.932-36.94-24.686-75.271-27.37-119.84-.943-15.67-1.085-37.131-.275-41.61a33.954 33.954 0 0 1 4.697-12.557 26.422 26.422 0 0 1 11.019-9.007c8.639-3.61 28.188-9.245 44.924-12.95a447.765 447.765 0 0 1 86.79-10.64c8.393-.237 22.975-.157 25.942.143.526.053 2.57.16 4.542.24a519.762 519.762 0 0 1 62.4 6.715c22.44 3.984 39.529 9.043 54.154 16.03 2.3 1.1 4.988 2.379 5.97 2.843 8.09 3.817 11.788 9.71 13.009 20.727.6 5.422-.834 32.25-2.735 51.14-5.388 53.545-16.21 92.654-36.583 132.216a513.934 513.934 0 0 1-31.311 51.985c-17.047 24.329-33.557 41.329-66.794 68.776-.672.555-3.481 2.885-6.243 5.179s-5.744 4.666-6.63 5.27c-3.116 2.135-6.152 2.909-8.624 2.2Zm-61.972-86.982c2.934-1.357 3.906-3.43 4.3-9.165.264-3.815 1-5.262 2.88-5.662l.95-.2-.12-2.3a67.76 67.76 0 0 1 .062-9.287 25.337 25.337 0 0 1 2.646-3.772c3.214-4.056 5.13-6.864 5.67-8.31a33.982 33.982 0 0 0 .947-4.675c.575-3.942.326-3.377 4.643-10.54 1.282-2.126 3.2-5.671 4.27-7.877a29.07 29.07 0 0 1 2.844-5q.7-.766 1.386-1.551a1.662 1.662 0 0 1 .714-.564c.489 0 1.914 1.53 2.444 2.627s.554 1.377.554 6.823c0 5.674 0 5.679.564 6.145a2.115 2.115 0 0 0 1.112.466c.543 0 .542-.011-.127-.736-.978-1.064-1.2-2.527-1.028-6.654.138-3.24.106-3.666-.38-5.13a7.914 7.914 0 0 1-.455-2.386c.07-.748.13-.793 1.15-.866 1.214-.088 1.764-.5 2.414-1.793a5.294 5.294 0 0 0 .5-3.042c-.038-.666-.218-.871-1.28-1.46-1.633-.9-2.084-1.59-2.38-3.617a48.9 48.9 0 0 1 .434-11.246c.437-1.463.636-1.488 2.347-.3a41.913 41.913 0 0 0 9.249 4c3.07.788 7.245.88 8.572.19a59.514 59.514 0 0 0 7.227-5.622c.82-.773 2.137-1.883 2.926-2.465s1.857-1.423 2.374-1.867a3.292 3.292 0 0 1 1.485-.81 9.35 9.35 0 0 1 3.915 1.623c1.44 1.234.718 2.48-2.782 4.8a22.931 22.931 0 0 0-7.08 7.8 104.236 104.236 0 0 0-3.531 10.646 9.832 9.832 0 0 0 1.57 4.269c2.877 4.064 4.265 6.345 4.56 7.5a20.166 20.166 0 0 0 .689 2.148c.775 1.889-.154 2.937-3.3 3.716-1.212.3-2.817.62-3.565.71l-1.361.164.385.6c.33.512.415.543.6.214s.7-.384 2.94-.384a9.463 9.463 0 0 0 3.99-.506l1.26-.506.6.76c.672.852 4.547 4.907 4.547 4.759 0-.613-1.851-4.89-3.318-7.671-1.025-1.94-2.348-4.568-2.94-5.84a34.914 34.914 0 0 0-3.032-4.965 21.769 21.769 0 0 1-2.13-3.284 9.59 9.59 0 0 1 .427-4.98c.923-2.648 1.659-2.471 1.666.4.005 2.086.272 2.718 2.569 6.076 2.636 3.854 2.822 4.193 4.137 7.5a38.532 38.532 0 0 0 4.1 7.723 22.019 22.019 0 0 1 2.346 6.366 2.289 2.289 0 0 1-.8 1.435l-.807.8-.512-.663c-.283-.364-.588-.587-.678-.495a6.048 6.048 0 0 0-.264 1.736c-.1 1.546-.086 1.58.766 2.348.814.733.865.865.865 2.255a4.082 4.082 0 0 0 1.594 3.684 13.04 13.04 0 0 0 3.414 1.053l2.658.539.942-.76c1.647-1.327 3.575-3.68 3.84-4.687a2.706 2.706 0 0 0-.532-2.77 4.557 4.557 0 0 1-.811-1.083c-.484-.951-.066-1.192 2.07-1.192 1.74 0 1.877-.04 2.426-.7a37.413 37.413 0 0 0 3.207-7.153 10.153 10.153 0 0 0 .59-4.051 10.239 10.239 0 0 1 .615-4.137c.85-2.49.857-4.346.022-5.978a6.563 6.563 0 0 0-3-3.023c-1.957-1.245-1.71-2.026.974-3.06 1.535-.592 2.313-1.247 2.313-1.948 0-.571-.012-.574-2.115-.436s-2.118.137-2.57-.532c-1.321-1.952-2.077-2.233-3.438-1.281-1.477 1.033-4.787 7.137-4.787 8.823 0 .98 1.082 1.974 3.052 2.8a23.327 23.327 0 0 1 2.4 1.129 3.753 3.753 0 0 1 1.48 3.415 8.383 8.383 0 0 0 .25 2.17 8.767 8.767 0 0 1 .26 2.23 5.7 5.7 0 0 1-.726 3.092c-.964 1.993-3.97 5.936-4.758 6.24-.854.33-1.741-.375-2.17-1.728a2.365 2.365 0 0 1 .209-2.29c1.13-2.6 1.262-3.565.992-7.318a23.526 23.526 0 0 0-.543-4.118c-.494-1.1-1.278-.768-2.938 1.267-1.56 1.91-2.573 2.718-3.417 2.72-.818 0-1.1-.824-.96-2.778s.573-3.287 2.282-7.09a109.757 109.757 0 0 0 4.02-10.69 23.217 23.217 0 0 0 .11-8.393 5.447 5.447 0 0 0-1.58-2.677 49.719 49.719 0 0 1-6.5-9.25c-1.732-3.321-2.9-6.811-2.277-6.811.325 0 2.979 3.452 4.066 5.289 1.332 2.25 2.025 2.826 3.21 2.666.868-.118.9-.1 1.034.768a17.066 17.066 0 0 0 3.934 8.22 38.316 38.316 0 0 0 6.2 5.064 31.045 31.045 0 0 0 6.23 2.074 22.709 22.709 0 0 0 5.925.493c4.083 0 5.012-.18 5.98-1.166a6.582 6.582 0 0 1 1.874-.992c.77-.281 1.66-.65 1.977-.818.836-.446 1.476-1.435 1.317-2.034-.126-.475-.353-.521-3.165-.66a23.209 23.209 0 0 1-9.315-2.21q-1.629-.82-3.324-1.495c-2.808-1.075-4.941-2.812-5.435-4.422-.246-.807.236-1.488 1.183-1.67a2.014 2.014 0 0 0 .968-.375.7.7 0 0 1 .535-.22c1.02-.01 1.082-.307.55-2.612-.636-2.76-.642-3.224-.037-3.224.979 0 1.68.61 3.034 2.639a30.813 30.813 0 0 0 2.75 3.5c1.2 1.253 1.455 1.4 2.316 1.4a1.85 1.85 0 0 0 1.11-.235 2.2 2.2 0 0 0-.345-1.207 5.24 5.24 0 0 1-.486-2.19 2.505 2.505 0 0 1 .74-2.077c.689-.8.844-.86 2.117-.86a3.843 3.843 0 0 1 3.578 2.016c.526.824.674.9 1.66.9a3.153 3.153 0 0 0 2-.645c.775-.548 1-.6 1.5-.375a3.687 3.687 0 0 1 1.163 1.192 10.23 10.23 0 0 0 1.308 1.62c.677.65.82.689 2.014.537a5.025 5.025 0 0 1 1.914.08c1.084.419 1.21 1 .753 3.424-.384 2.034-.385 2.232-.007 3.239a7.339 7.339 0 0 0 1.123 1.893c.81.925.823.969 1.188 4.03a15.389 15.389 0 0 1-1.15 8.175c-.52 1.375-1.334 3.544-1.811 4.818a14.94 14.94 0 0 1-1.548 3.147l-.68.829.977.756c1.263.977 2.22 2.625 3.575 6.157 1.936 5.042 2.11 5.668 2.143 7.6a12.579 12.579 0 0 1-.981 4.917c-1.352 4.139-1.39 5.733-.173 7.354a4.445 4.445 0 0 1 .837 1.523 12.932 12.932 0 0 1-1.313 2.616c-2.985 5.02-2.975 7.3.047 10.115 1.58 1.469 2.975 2.243 3.855 2.14.6-.07.645-.166.713-1.413.084-1.5.754-2.505 1.59-2.383.418.062.512.312.649 1.734.2 2.058.308 2.352.86 2.352.99 0 4.319-2.642 4.99-3.96l.36-.713-1.034.729a12.248 12.248 0 0 0-1.614 1.362 1.444 1.444 0 0 1-2.24.145c-.841-.674-.983-1.616-.518-3.438.544-2.127.372-3.776-.471-4.514-.55-.48-.907-.562-2.481-.565a7.225 7.225 0 0 1-2.185-.227c-.643-.413.093-1.4 1.638-2.191 2.24-1.151 2.36-1.966.434-2.967-1.277-.663-1.59-1.088-1.6-2.18a3.182 3.182 0 0 1 2.135-2.917 2.815 2.815 0 0 0 2.162-2.936 4.391 4.391 0 0 0-2.012-3.865c-2.354-1.8-2.293-1.7-2.293-3.875 0-1.577.086-2.042.442-2.4.328-.335.476-.958.575-2.431a8.936 8.936 0 0 1 .634-3.034c.792-1.663.71-2.091-.837-4.428-.99-1.492-1.292-3.008-1.292-6.466a16.5 16.5 0 0 0-.22-3.215c-.31-.83-.031-3.592.379-3.752.7-.271 1.768.484 2.532 1.784.84 1.43 1.016 1.55 1.2.82.2-.78 1.363-.6 4.119.616 6.242 2.766 13.238 3.33 17.012 1.37a25.119 25.119 0 0 0 7.02-6.192c.928-1.548.868-1.577-2.995-1.443a21.514 21.514 0 0 1-8.848-1.1 15.424 15.424 0 0 1-5.987-4.08 37.713 37.713 0 0 0-3.568-3.4 20.376 20.376 0 0 1-2.6-2.448.6.6 0 0 0-.52-.363c-.732 0-3.967-1.521-5.738-2.7-.98-.651-2.227-1.414-2.768-1.7-1.722-.9-8.27-2.247-12.34-2.55l-2.205-.164-.161-.887a12.523 12.523 0 0 0-2.233-4.991c-1.2-1.891-1.444-2.445-1.45-3.34-.005-1.284-.524-2.51-2.25-5.3a15.482 15.482 0 0 1-1.814-4.03 36.389 36.389 0 0 0-1.444-4.062 21.183 21.183 0 0 1-1.894-6.9 28.923 28.923 0 0 0-1.88-7.7 40.388 40.388 0 0 1-1.471-5.2c-.754-3.821-1.037-4.526-2.986-7.435a17.785 17.785 0 0 1-1.92-3.423 4.3 4.3 0 0 0-.822-1.575 21.125 21.125 0 0 1-1.574-2.312 72.785 72.785 0 0 0-1.475-2.383 3.355 3.355 0 0 1-.547-1.491c0-1.036.572-1.343 2.369-1.271 3.786.149 6.714 3.038 10.542 10.4 3.042 5.85 5.54 8.868 8.65 10.452a6.068 6.068 0 0 0 2.82.862c1.429 0 1.947-.535 2.1-2.167.134-1.407-.138-2.7-1.437-6.836a19.809 19.809 0 0 1-1.1-5.53c-.182-3.008-.316-3.193-3.027-4.146-2.332-.82-2.471-1.25-.56-1.741 1.892-.487 3.909.032 6.122 1.576 1.449 1.012 1.727 1.117 2.645 1.013.832-.1 1.287-.364 2.4-1.423 1.259-1.2 1.368-1.38 1.278-2.177a4.5 4.5 0 0 1 1.4-3.266c.709-.643 1.11-1.648 1.938-4.84 1.1-4.251.812-7.8-.871-10.733-1.346-2.346-7.734-7.513-11.445-9.255-3.39-1.592-3.554-1.605-21.906-1.823-20.47-.244-29.578-.7-32.224-1.61-3.82-1.313-6.571-3.7-6.166-5.34a4.924 4.924 0 0 1 2.66-2.674c2.13-.827 5.138-.237 10.984 2.15 5.36 2.19 8.608 2.747 14.81 2.536 5.508-.188 9.857-.858 10.976-1.69.409-.305.409-.334-.007-.713a19.53 19.53 0 0 0-3.9-1.3c-4.178-1.09-6.456-1.967-6.456-2.488 0-.327.414-.357 3.168-.237a38.816 38.816 0 0 1 9.545 1.635 16.1 16.1 0 0 0 6.857.223c.836-.3.988-.92.377-1.54-1.531-1.56-9.938-4.617-16.4-5.965-4.072-.85-7.228-1.057-14.018-.921-8.356.167-11.81.787-15.806 2.84-3.262 1.676-7.078 5.206-8.28 7.658-1.406 2.874-.457 4.789 3.593 7.257 2.8 1.708 5 2.408 9.683 3.092 8.486 1.238 14.478 1.53 30.962 1.514 8.052-.01 14.469.086 15.3.226a19.77 19.77 0 0 1 6.908 2.512 18.372 18.372 0 0 1 5.114 6.1 6.088 6.088 0 0 1 .873 3.528 4.9 4.9 0 0 1-.673 3.09c-.924 1.695-2.82 3.824-3.76 4.22-1.12.473-3.82-.01-7.016-1.237a14.465 14.465 0 0 0-5.26-1.206c-2.912-.216-3.24-.314-7.57-2.264a77.11 77.11 0 0 0-14.525-4.8c-1.61-.278-3.174.036-5.414 1.09-2.262 1.065-3.562 2.112-8.06 6.493-4.237 4.129-6.161 5.667-8.53 6.82-4.3 2.1-16.592 9.12-17.734 10.138a37.686 37.686 0 0 0-5.694 7.022c-2.18 3.74-2.854 6.682-3.113 13.578-.177 4.7-.21 4.938-.955 6.867a69.065 69.065 0 0 1-6.034 10.576 103.892 103.892 0 0 0-6.182 10.388c-2.66 5.354-3.116 7.4-3.346 14.995l-.17 5.6-.866 2.567c-.477 1.41-1.472 4.039-2.212 5.84-2.743 6.673-2.69 6.332-2.944 18.6l-.187 9-1 2.014a38.09 38.09 0 0 1-2.05 3.568c-1.324 1.97-1.7 3.552-2.187 9.26q-.226 2.7-.49 5.393c-.1.893-.47 1.41-3.127 4.38-5.065 5.66-7 8.608-7 10.648 0 1.01-.076 1.145-1.02 1.806a20.178 20.178 0 0 0-5.338 6.21c-1.033 2.216-1.277 4.278-.65 5.509.7 1.38 1.17 1.15 3.146-1.541l1.756-2.393.575.549a1.852 1.852 0 0 1 .575.854 14.863 14.863 0 0 1-.965 2.33 8.424 8.424 0 0 0-.9 2.634c.09.816.922.939 5.926.882 3.532-.044 4.063-.105 5.134-.6Zm-2.222-13.2c-.827-.33-2.06-3.147-1.857-4.247.174-.942.406-1.01 1.65-.48a2.535 2.535 0 0 0 3.13-.486c1.176-.914 1.55-1.02 2-.56q.634.645-.218 2.272-.431.822-.86 1.646c-.67 1.283-2.754 2.288-3.845 1.855Zm7.71-22.966c-.531-.54-.587-.8-.587-2.657a15.627 15.627 0 0 0-.117-2.383.911.911 0 0 1 .116-.69c.195-.3.353-.234.966.427a1.9 1.9 0 0 0 1.722.79 2.065 2.065 0 0 0 1.53-.517c.73-.7 1.288-.446 1.265.57a5.842 5.842 0 0 1-2.453 4.416c-1.207.799-1.694.808-2.442.047Zm76.088-2.184a4.672 4.672 0 0 1-1.391-.56 8.3 8.3 0 0 1-.551-4.138c.5-1.463 2.309-.787 2.759 1.034.26 1.056.3 1.09 1.189 1.09 1.058 0 1.415.449 1.415 1.779 0 .743-.085.854-.748.989a4.421 4.421 0 0 1-2.673-.194Zm-71.1-20.2c-1-.45-1.354-1.645-1.232-4.174.112-2.33 1.049-4.5 2.318-5.374l.8-.547.6.722a1.762 1.762 0 0 0 1.18.72c.877 0 2.69-1.047 4.036-2.33.658-.628 1.806-1.683 2.553-2.346 1.69-1.5 2.113-2.507 2.1-5-.018-3.23-.241-3.9-1.757-5.287a5.455 5.455 0 0 1-2.124-4.4c-.005-2.088 1-3.26 2.794-3.26.987 0 1.675.667 2.919 2.833 2.052 3.57 5.045 4.953 7.015 3.24.942-.82 1.254-.88 1.785-.338.307.312.375 1.024.375 3.878a24.68 24.68 0 0 0 .22 4.082c.149.4.648.766 1.564 1.144 1.632.675 2.154 1.493 1.976 3.1a2.736 2.736 0 0 1-2.122 2.51c-1.337.367-2.324.01-6.417-2.318a3.444 3.444 0 0 0-3.475-.221 11.92 11.92 0 0 0-1.8 2.062 12.4 12.4 0 0 1-3.594 3.293 13.377 13.377 0 0 0-4.868 4.942c-1.086 1.725-2.383 3.18-2.84 3.186a4.255 4.255 0 0 0-.757.118 2.429 2.429 0 0 1-1.24-.23Zm38.419-51.5a15.9 15.9 0 0 0-2.75-.992c-1.53-.331-2.412-.794-2.871-1.507-.328-.51-.327-.72.009-2.054.433-1.72.21-3.066-.631-3.84-.425-.39-.841-.457-2.571-.424a11.725 11.725 0 0 0-3.111.426c-.575.212-1.073.386-1.106.386a14.834 14.834 0 0 1 .387-3.207 2.178 2.178 0 0 1 1.065-1.427c1.428-.9 1.625-1.417 1.47-3.86-.187-2.934.179-4.382 1.11-4.4a4.148 4.148 0 0 1 1.1.909 6.29 6.29 0 0 1 1.439 2.615c.932 2.9 1.328 3.528 2.22 3.532 1.43.01 1.489.149 1.489 3.577 0 3.746.23 4.326 2.72 6.828 3.829 3.848 3.84 5.233.03 3.436Zm38.877-19.552a14.1 14.1 0 0 1 0-2.795l.16-2.15-.681-.452c-.606-.4-1.212-.454-5.591-.461-4.29-.01-5.033-.064-5.867-.463l-.957-.456.717-.177a20.43 20.43 0 0 1 2.989-.208c2.624-.034 3.65-.273 4.76-1.106 3.112-2.336 2.485-5.226-2.145-9.883-2.885-2.9-3.391-3.7-3.285-5.172l.073-1.021 1.2 1.23a16.44 16.44 0 0 1 2.028 2.677 98.934 98.934 0 0 0 7.3 10.162c2.38 2.655 3.269 4.97 2.883 7.507-.2 1.343-1.61 3.058-2.677 3.267-.66.129-.763.073-.9-.5Zm-5.2-38.517a16.4 16.4 0 0 1-1.155-1.485c-.3-.45-1.062-1.411-1.687-2.138-1.363-1.586-1.552-2.15-.93-2.782.639-.65 3.343-.66 4.529-.018 1.205.654 2.125 2.592 2.312 4.872l.148 1.788-.725-.162c-.537-.12-.76-.064-.866.216-.218.582-.958.449-1.626-.291Zm-7.017-34.3a14.688 14.688 0 0 1-1.6-.606c-1.363-.59-1.693-1.295-.908-1.941.694-.572 1.235-.556 2.447.073a7.842 7.842 0 0 0 2.44.636 4.613 4.613 0 0 1 2.349.735c.983.674 1.09.907.519 1.13a26.529 26.529 0 0 1-5.242-.027ZM131.783 277.79c1.645-.86 3.16-2.641 4.51-5.3a15.528 15.528 0 0 1 2.289-3.4c1.406-1.438 1.7-1.985 2.354-4.44a24.9 24.9 0 0 1 3.592-7.4c2.172-3.3 3.142-4.243 6-5.8 4.5-2.46 4.772-2.79 5.057-6.215a12.858 12.858 0 0 1 .554-3.124 18.171 18.171 0 0 1 4.527-4.182l1.412-.943h-6.625c-5.14 0-6.992.085-8.263.38a12.018 12.018 0 0 1-2.8.3l-1.158-.075-1.49 3.77a36.065 36.065 0 0 0-1.493 4.244 18.337 18.337 0 0 1-1.21 4.518 29.528 29.528 0 0 1-5.75 6.094 4.356 4.356 0 0 1-1.611.476 2.631 2.631 0 0 0-2.176 1.635 7.484 7.484 0 0 1-1.98 1.894 26.82 26.82 0 0 0-5.46 5.126 11.082 11.082 0 0 0-1.183 5.719c0 2.6.5 4.85 1.09 4.85a8.665 8.665 0 0 0 2.062-1.216c2.736-1.956 3.293-1.54 1.627 1.216a9.4 9.4 0 0 0-.957 1.862c0 .474 1.694.8 3.825.725a6.319 6.319 0 0 0 3.256-.708Zm2.34-13.27c-1.536-1.142-2.963-2.61-2.963-3.048 0-.245.565-.69 1.459-1.148l1.458-.75.969.652a3.788 3.788 0 0 0 3.964.392c1.74-.674 1.933-.558 1.67 1.008a8.708 8.708 0 0 1-.5 1.853c-.378.764-1.92 1.446-3.676 1.628a2.448 2.448 0 0 1-2.377-.586Zm25.13.439c.538-.14.279-.193-1.034-.215-1.53-.025-1.741-.083-1.674-.455.042-.233.636-.7 1.317-1.034a9.318 9.318 0 0 0 1.435-.812 7.044 7.044 0 0 0 .2-2.122c0-2.3.33-2.78 2.142-3.123 1.25-.238 1.8-.741 1.8-1.643 0-.417-.256-.666-1.056-1.026-1.317-.593-1.771-1.318-1.162-1.86.233-.206 1.313-1.156 2.4-2.11 1.75-1.535 2.014-1.877 2.3-2.975a23.913 23.913 0 0 0 .955-5.886c-.228-.652-1.07-1.56-1.447-1.56a1.591 1.591 0 0 1-.795-.486c-.32-.324-.478-.38-.478-.162a20.011 20.011 0 0 1-1.588 2.98c-.874 1.46-2.021 3.567-2.548 4.682a5.612 5.612 0 0 1-2.417 3.029 13.418 13.418 0 0 0-6.111 9.98c-.248 2.01-.087 3.337.4 3.337a5.384 5.384 0 0 0 1.608-1.1 5 5 0 0 1 1.676-1.1c.372 0 .4.18.253 1.662l-.164 1.662.8.26a6.069 6.069 0 0 0 3.189.068Zm74.656-83.856a12.808 12.808 0 0 0 1.88-2.1l1.06-1.465-.6-.757a41.175 41.175 0 0 1-5.024-7.563 19.309 19.309 0 0 1-1.314-3.05c.013-.59.743-1.352 2.179-2.273 3.244-2.085 3.6-2.96 3.739-9.265a37.649 37.649 0 0 0-.18-6.083 12.926 12.926 0 0 0-2.981-5.9l-1.246-1.4-.936.288a7.373 7.373 0 0 0-3.48 3.342c-.623 1.393-.55 3.026.288 6.34a19.958 19.958 0 0 1 .736 4.749c0 2.193-.088 2.765-1.111 7.039a38.126 38.126 0 0 0-1.338 10.289c0 3.2.32 4.752 1.238 6.116 1.586 2.355 5.147 3.205 7.093 1.694ZM32.183 88.927c2.2-1.19 8.03-3.691 12.843-5.513l4.123-1.561v-3.346a12.452 12.452 0 0 0-.22-3.346c-.3 0-7.311 2.9-9.67 3.992a17.326 17.326 0 0 1-2.092.875c-.118 0-.21-7.512-.21-17.155 0-9.435-.08-17.156-.178-17.158s-1.753.737-3.677 1.643l-3.5 1.646-.1 20.2c-.056 11.107-.062 20.278-.015 20.378.188.4 1.22.146 2.7-.651Zm277.385-8.593c-.041-4.784-.148-13.99-.24-20.454l-.164-11.756-3.108-1.323a20.388 20.388 0 0 0-3.766-1.323h-.657v40.576l1.016.273c.559.15 2.254.81 3.766 1.467s2.857 1.2 2.988 1.216c.156.014.213-2.98.165-8.678Zm-13.23-25.877.034-11.338-2.69-.906c-1.478-.5-2.876-1.01-3.1-1.133a2.911 2.911 0 0 0-1.137-.226h-.721l-.027 10.28c-.016 5.654-.012 10.417.01 10.585.173 1.353-1.014-1.312-5.244-11.771-3.662-9.055-5.005-12.126-5.37-12.282a38.284 38.284 0 0 0-6.087-1.437h-.734v40.878h.61c.5 0 5.173 1.1 6.863 1.609.4.12.413-.518.269-12.36-.105-8.63-.076-12.412.1-12.244.137.134 2.775 6.48 5.863 14.106l5.615 13.863 2.715.866 2.715.866.146-9.011c.079-4.952.159-14.11.178-20.346ZM52.418 80.884a31.461 31.461 0 0 1 3.07-1.1c1.3-.406 2.375-.765 2.394-.795s.554-2.658 1.189-5.838l1.156-5.781 1.1-.33c3.773-1.132 6.287-1.681 6.453-1.408.1.158.643 2.395 1.214 4.97s1.108 4.765 1.194 4.866a16.788 16.788 0 0 0 3.607-.638c2.842-.676 3.44-.893 3.38-1.227-.04-.223-.934-3.385-1.988-7.027s-3.488-12.042-5.388-18.666-3.513-12.09-3.567-12.144a14.724 14.724 0 0 0-2.552.54c-1.349.352-2.718.672-3.042.708-.577.064-.647.332-3.507 13.327-1.6 7.294-3.774 17.13-4.82 21.858-1.884 8.52-1.9 8.6-1.394 8.805.7.287.7.287 1.5-.12Zm8.928-18.811c0-.385 2.39-12.318 2.545-12.7.174-.434.473.665 1.867 6.874l1.024 4.562-.984.257c-1.032.27-3.317.9-4.033 1.113-.231.067-.42.022-.42-.1Zm204.745-7.031.143-20.241-1.367-.28q-1.943-.405-3.88-.836a28.162 28.162 0 0 0-2.928-.547c-.394.01-.422.9-.478 14.629-.06 14.168.023 25.973.18 26.137a73.4 73.4 0 0 0 8.038 1.52c.082-.076.214-9.25.292-20.382ZM84.199 72.608c1.682-.335 3.09-.608 3.129-.608s.1-4.626.133-10.28c.046-7.668.128-10.126.323-9.673.143.335 1.748 4.688 3.565 9.673s3.423 9.062 3.565 9.06c.773-.011.7.2 5.684-17.03.677-2.341 1.32-4.361 1.43-4.488s.2 4.39.2 10.038.08 10.267.179 10.266c.287 0 5.605-.706 6.409-.847l.73-.13-.081-19.645c-.044-10.806-.138-20.014-.208-20.462-.12-.763-.175-.806-.89-.682a37.615 37.615 0 0 1-6.021.586c-.335-.065-.652-.047-.706.04s-1.562 4.919-3.352 10.735-3.37 10.938-3.507 11.382-.3.76-.356.7-1.608-4.526-3.447-9.931l-3.438-10.1c-.065-.187-.965-.1-2.925.3a33.7 33.7 0 0 1-3.568.573l-.74.01-.157 7.7c-.087 4.238-.158 13.428-.158 20.422 0 13.6-.062 12.778.994 12.969.086.015 1.533-.246 3.214-.58Zm168.12-20.151.062-20.354-.54-.117a64.153 64.153 0 0 0-6.518-1.11h-.788l.133 7.909c.128 7.657.118 7.908-.323 7.908-.25 0-2.23-.272-4.4-.6s-4.024-.606-4.123-.608-.18-3.614-.18-8.028v-8.03l-.537-.113c-1.066-.224-6.053-.872-6.7-.871h-.657v40.791l3.766.5c2.07.274 3.83.462 3.91.417s.092-4.263.026-9.371l-.12-9.29.572.136c.315.074 2.32.382 4.458.683l3.885.547v18.9l.777.013c.428.01 2.12.267 3.766.575s3.1.54 3.228.515c.157-.031.26-7.076.3-20.4Zm-36.92 16.015a9.633 9.633 0 0 0 7.124-6.966c.4-1.295.45-2.3.45-8.265v-6.792h-11v1.18c0 .649-.07 2.019-.154 3.042l-.154 1.862h4.659l-.083 3.242c-.078 3.03-.125 3.306-.72 4.22-1.767 2.716-5.421 2.236-7.555-.991-1.545-2.338-1.612-2.883-1.612-13.162 0-9.051.012-9.27.524-10.243a5.765 5.765 0 0 1 2.888-2.671c.359-.08.779-.185.934-.232a4.28 4.28 0 0 1 2.848 1.152 6.113 6.113 0 0 1 1.93 3.72l.147 1.1h3.554c4.06 0 3.77.223 3.21-2.463a11.219 11.219 0 0 0-11.208-9.217 12.035 12.035 0 0 0-11.682 9.029c-.24.807-.316 3.4-.312 10.677 0 10.618.137 11.889 1.553 14.77a15.013 15.013 0 0 0 4.61 5.209 15.663 15.663 0 0 0 4.95 2 15.063 15.063 0 0 0 5.1-.2Zm-90.453-1.33c8.19-.7 8.723-.852 10.8-3.111 3.822-4.158 4.354-12.771 1-16.218a6 6 0 0 0-3.073-1.6c-.31 0-.111-.19.564-.531 3.61-1.818 4.679-9.408 2.1-14.927a8.647 8.647 0 0 0-4.183-4.447l-1.346-.628-3.95.3c-4.042.305-11.8 1.028-11.891 1.109-.03.024-.127 9.227-.22 20.449l-.165 20.4 2.25-.148c1.24-.082 4.889-.374 8.11-.648Zm-3.168-5.747a50.063 50.063 0 0 1-.18-5.825v-5.642l3.527-.14 3.526-.137.788.769a9.052 9.052 0 0 1 1.435 2.11 6.334 6.334 0 0 1 .647 3.53c0 1.959-.07 2.313-.667 3.345-1.014 1.756-1.623 1.984-5.55 2.086a18.769 18.769 0 0 1-3.526-.1Zm1.19-17.8-1.378-.088.064-5.28.064-5.28 3.26-.067 3.259-.067 1.1 1.25c2.6 2.939 2.3 7.694-.562 9.165-1.09.559-1.95.613-5.811.367Zm34.563 22.694c4.988-1.075 8.419-4.664 9-9.417.12-.98.194-6.162.164-11.516-.062-10.735-.1-11.085-1.661-14.113a14.528 14.528 0 0 0-4.844-5.043 14.342 14.342 0 0 0-5.55-1.588c-4.18-.286-8.765 2.863-11.068 7.6-1.638 3.37-1.723 4.222-1.53 15.325.183 10.434.279 11.313 1.489 13.576 2.21 4.135 8.327 6.395 14 5.172Zm-5.117-6.3a5.436 5.436 0 0 1-2.97-2.455l-.607-1.056-.05-10.183-.05-10.182.66-1.368c1.668-3.458 5.64-4.085 8.506-1.342a6.681 6.681 0 0 1 1.959 4.146c.11.816.233 5.316.273 10 .072 8.455.069 8.525-.474 9.653a5.952 5.952 0 0 1-7.251 2.782Zm43.064 6.11c0-.168-1.56-4.273-3.467-9.123s-3.468-8.914-3.468-9.033.4-.293.887-.386c3.543-.677 5.56-4.206 5.564-9.74 0-5.245-2.162-10.02-5.43-11.97-1.225-.73-3.17-.912-12.437-1.17l-5.8-.161v40.858l.776.12c.428.065 2.1.139 3.717.16l2.94.04-.034-8.71-.035-8.71 2.008-.07 2-.07 2.139 7.005c1.177 3.853 2.418 7.88 2.758 8.95l.619 1.948 2.61.068c1.439.038 2.775.107 2.973.154.859.2 1.674.123 1.674-.165Zm-16.819-23.465a53.722 53.722 0 0 1-.16-5.69v-5.52l2.946-.173c3.26-.191 4.21.027 5.479 1.264 2.078 2.026 1.962 7.614-.2 9.546l-.83.74h-3.536a23.118 23.118 0 0 1-3.7-.162Z"></path>
  <path fill="#5c4b21" d="M163.576 374.641c-7.988-4.956-27.908-21.166-41.287-33.6a344.138 344.138 0 0 1-58.983-73.225c-32-54.35-48.626-117.727-50.583-192.826-.572-21.93-.532-22.623 1.549-27 2.758-5.8 5.236-7.51 18.364-12.643 36.245-14.171 74.51-20.728 126.913-21.745 59.165-1.15 108.083 5.989 147.453 21.52 13.645 5.382 16.072 7.04 18.845 12.874 2.088 4.394 2.124 5.043 1.54 27.487-3.206 123.332-45.513 214.8-131.837 285.043-10.47 8.52-21.394 16.287-24.114 17.147-1.347.427-3.82-.527-7.86-3.033Zm-58.013-84.123c1.5-.7 2.6-2.48 3.4-5.536a20.617 20.617 0 0 1 2.679-6.27c.9-1.064 1.644-4.3 1.888-8.215.357-5.714.826-7 4.066-11.18a34.541 34.541 0 0 0 5.214-10.274 58.3 58.3 0 0 1 3.042-8.475c6.13-12.017 10.089-18.98 10.789-18.98 2.11 0 3.8 4.615 3.8 10.388 0 4.55.382 6.279 1.533 6.936 1.369.78 1.383 1.175.134 3.7a32.068 32.068 0 0 0-2.074 5.685c-.924 3.916-3.987 8.08-7.178 9.76a41.923 41.923 0 0 0-7.09 5.79c-3.515 3.479-4.43 5.05-4.418 7.588.02 4.29 1.4 6.532 3 4.895 1.924-1.96 2.8-1.393 2.115 1.375-.614 2.492-.523 2.56 2.56 1.933 3.956-.807 7.537-3.124 8.192-5.3a17.677 17.677 0 0 1 1.338-3.106c.463-.8 2.233-4.454 3.933-8.114a28.141 28.141 0 0 1 7.356-10.216 22.986 22.986 0 0 0 5.656-6.948c2.257-5.5 8.826-10.2 8.826-6.313 0 2.282-3.7 9.167-6.4 11.92-3.4 3.46-6.014 8.1-6.02 10.669 0 2.255 1.34 2.939 2.386 1.217s2.227-1.04 1.71.974c-.42 1.636-.03 1.946 2.445 1.946 4.909 0 9.527-2.816 10.237-6.243a23.9 23.9 0 0 1 2.465-6.1 7.513 7.513 0 0 0 1.239-5.545c-.646-2.62 1.107-9.367 2.433-9.367.988 0 4.446 7.255 5.335 11.192a13.379 13.379 0 0 0 2.545 5.03c1.746 1.96 2.509 2.07 11.1 1.58 8.889-.507 9.313-.636 11.614-3.53 1.73-2.176 2.536-4.618 2.928-8.88.688-7.51 3.927-12.62 11.366-17.937l5.563-3.976 1.37 2.179a67.313 67.313 0 0 1 3.626 7.782c2.07 5.149 2.156 5.994 1.042 10.42-.666 2.649-.926 5.733-.576 6.854s-.116 4.162-1.061 6.838l-1.7 4.8 2.26 2.452c2.565 2.78 4.336 3.122 5.139.99.729-1.932 2.52-1.874 2.52.08 0 2.07 1.877 1.312 4.035-1.633 1.65-2.253 1.666-2.673.25-6.751-.83-2.392-1.316-5.1-1.082-6.026a17.629 17.629 0 0 0-.52-5.84 42.735 42.735 0 0 1 .186-17.8c.922-4.525.792-5.507-1.362-10.243-1.311-2.881-2.2-5.421-1.983-5.645s2.028.247 4.02 1.045c9.263 3.71 16.5 2.864 20.9-2.442l2.605-3.145-5.641-.49c-6.411-.558-6.7-.7-13.472-6.741-4.77-4.253-4.944-4.587-4.433-8.392.3-2.246-.17-7.18-1.09-11.39-1.494-6.846-1.5-7.842-.1-12.741a39.512 39.512 0 0 0 1.517-8.174c0-4.7-2.572-11.961-5.6-15.8a24.868 24.868 0 0 1-3.877-7.518 30.005 30.005 0 0 0-3.381-7.437c-2.211-3.32-2.266-3.716-.954-6.915a28.222 28.222 0 0 0 1.392-8.744c0-4.648-.406-5.822-3.1-8.953-5.854-6.792-8.594-7.411-36.543-8.252-32.264-.97-37.346-2.2-32.334-7.845 2.05-2.31 5.4-2.25 12.36.223 7.607 2.7 16.915 3.368 22.363 1.61 4.678-1.51 4.763-1.43-3.344-3.145-1.313-.277-2.39-.992-2.39-1.587 0-.727 1.486-.88 4.539-.466 12.49 1.692 14.569 1.816 14.569.867 0-1.58-8.39-4.823-17.142-6.63-14.074-2.9-27.64-.5-34.06 6.042-3.945 4.02-4.4 8.289-1.1 10.475 4.138 2.749 10.94 3.59 35.235 4.365 22.218.707 24.883.974 28.744 2.878 4.75 2.343 6.812 5.4 6.688 9.91-.1 3.746-2.566 7.74-4.768 7.74-3.73 0-16.071-3.154-24.811-6.336-5.127-1.867-10.183-3.393-11.233-3.39-2.373.006-5.16 1.868-13.417 8.97a92.6 92.6 0 0 1-14.085 9.6c-13.547 7.18-17.73 12.889-19.611 26.777-1.02 7.522-2.285 10.53-8.111 19.3-4.837 7.278-8.262 17.06-8.288 23.672-.013 3.192-1.133 8.307-2.984 13.625-2.451 7.04-3 10.2-3.178 18.247-.184 8.347-.561 10.378-2.648 14.27a31.944 31.944 0 0 0-3.11 10.963c-.615 5.855-1.091 6.92-5.365 12.008-2.58 3.07-4.695 6.115-4.7 6.766s-1.306 2.688-2.892 4.528c-3.645 4.229-5.432 9.079-3.914 10.625.807.822 1.459.556 2.56-1.047 2.1-3.047 3.3-2.68 2.34.716-.55 1.954-.451 3.024.307 3.36 1.439.64 6.872-.218 9.7-1.532Zm73.12-204.173c-2.68-1.728-.125-2.18 3.975-.7l4.119 1.484-3.344.062a10.827 10.827 0 0 1-4.75-.844ZM40.846 85.158c7.4-2.75 7.882-3.1 7.882-5.755 0-1.556-.148-2.828-.328-2.828s-2.828.876-5.882 1.946-5.7 1.947-5.882 1.947-.328-7.665-.328-17.032-.151-17.032-.335-17.032a32.187 32.187 0 0 0-3.344 1.068l-3.008 1.068v20.448c0 19.083.11 20.4 1.672 19.772.919-.372 5.218-1.993 9.553-3.6Zm269.653-16.274V48.54l-3.01-1.068a32.481 32.481 0 0 0-3.343-1.068c-.185 0-.335 9.134-.335 20.3v20.3l3.1 1.015q1.677.541 3.344 1.114c.135.049.244-9.06.244-20.249Zm-14.551-5.622-.259-20.128-2.627-.715-2.627-.715-.016 10.864c-.016 12.452-.113 12.415-5.834-2.273-4.193-10.765-5.557-12.652-9.142-12.652h-2.206v19.95c0 15.307.278 19.956 1.194 19.967a17.126 17.126 0 0 1 3.313.592c2.094.57 2.123.436 2.389-11.274l.27-11.853 5.224 13.277c2.874 7.3 5.883 13.67 6.688 14.15 3.8 2.267 3.9 1.724 3.632-19.192ZM57.452 79.879c.333-.2.9-2.767 1.26-5.71.738-6.008.676-5.93 5.43-6.838l3.46-.661 1.157 4.91c1.134 4.817 1.214 4.9 4.176 4.326a15.257 15.257 0 0 0 3.409-.923c.48-.417-8.58-36.623-9.372-37.447-.314-.327-1.888-.227-3.5.225-2.9.812-2.956.944-6.494 16.653q-2.414 10.751-4.879 21.49l-1.316 5.659 3.033-.663a21.944 21.944 0 0 0 3.638-1.021Zm4.14-19.75c.317-1.014.909-3.751 1.315-6.081l.74-4.238 1.259 5.22c1.06 4.393 1.05 5.354-.056 6.067-2.3 1.487-3.877 1.02-3.257-.967Zm204.959-4.422c0-10.942-.322-20.08-.717-20.3a20.1 20.1 0 0 0-3.344-1.05l-2.627-.64v40.782l2.627.4c1.445.223 2.95.47 3.344.55s.717-8.805.717-19.747ZM86.147 73.161c.93-.362 1.189-2.264.963-7.086-.17-3.625-.17-8.33 0-10.454.286-3.581.58-3.051 4.026 7.256l3.717 11.118 3.446-12.468 3.448-12.47.27 10.932c.234 9.4.479 10.849 1.75 10.352a10.932 10.932 0 0 1 3.313-.578c1.748 0 1.833-.937 1.833-20.243V29.276l-3.261.389c-3.194.38-3.312.559-5.785 8.807-1.39 4.63-3.087 10.17-3.774 12.312l-1.25 3.893-3.11-10.22c-1.71-5.62-3.445-10.591-3.857-11.047s-2.08-.53-3.708-.166l-2.96.663v19.874c0 18.943.086 19.874 1.833 19.874a10.444 10.444 0 0 0 3.1-.494Zm165.852-20.674-.26-20.195-2.626-.308-2.627-.308v15.722l-4.061-.578c-6.663-.95-6.45-.646-6.45-9.146 0-5.6-.337-7.82-1.192-7.83a17.384 17.384 0 0 1-3.344-.6l-2.15-.587v40.89l3.344.4 3.344.4v-9.05c0-10.025-.312-9.646 6.928-8.426l3.582.6v9.048c0 7.8.23 9.108 1.672 9.492 4.212 1.124 4.11 1.642 3.84-19.521ZM131.758 66.502c3.925-1.91 6.148-5.94 6.226-11.286.054-3.745-.4-5.346-1.99-6.963-2.046-2.086-2.048-2.122-.242-5.138a11.13 11.13 0 0 0 .386-11.323c-1.8-3.552-6.412-4.84-14.324-4l-5.732.607-.26 20.3-.257 20.3 6.946-.684c3.818-.375 7.98-1.187 9.247-1.8Zm-9.468-10.193c0-5.064.25-5.852 2.014-6.321 5.349-1.425 9.222 3.969 6.463 9-1.022 1.865-2.276 2.579-4.924 2.8l-3.553.3v-5.779Zm0-17.23v-5.328h3.153c3.82 0 5.446 1.475 5.446 4.942 0 3.094-1.3 4.307-5.494 5.116l-3.105.6V39.08Zm97.109 27.272c2.53-1.69 4.145-6.9 4.152-13.408.006-5.118-.076-5.187-6.922-5.855l-4.53-.444v3.29c0 2.857.312 3.287 2.389 3.287 1.927 0 2.388.48 2.388 2.5 0 5.767-4.551 8.333-7.964 4.49-4.684-5.271-3.638-25.351 1.4-26.98 2.1-.68 5.6 1.872 5.6 4.085 0 .847 1.18 1.309 3.344 1.309 3.793 0 4.219-1.293 1.916-5.828a9.823 9.823 0 0 0-9.56-5.851c-8.2 0-11.911 6.233-11.878 19.952.02 9.069 1.385 14.8 4.307 18.084 3.38 3.794 10.74 4.452 15.358 1.369Zm-59.1-1.033a18.784 18.784 0 0 0 4.219-5.6c3-5.858 3.054-20.563.107-27.118-2.01-4.468-5.9-7.611-9.427-7.611-3.34 0-7.84 3.133-9.922 6.908-4.44 8.048-3.571 25.86 1.564 32.079 2 2.418 3.06 2.862 6.844 2.862 2.519 0 5.413-.667 6.615-1.524Zm-9.093-6.946c-1.235-1.917-1.771-5.02-1.978-11.436-.243-7.535 0-9.271 1.7-12.033 2.473-4.03 5.574-3.9 7.655.308 2.154 4.36 1.987 19.677-.252 23.158-2.16 3.358-4.96 3.36-7.121 0Zm27.445-.6c0-8.22.087-8.57 2.044-8.272 1.627.247 2.646 2.049 5 8.827l2.95 8.516h7.143l-3.137-9.174-3.14-9.174 2.565-2.466c3.132-3.011 4.107-7.4 2.77-12.453-1.49-5.636-5.231-7.6-14.483-7.606h-7.367l-.276 20.035c-.152 11.02-.205 20.106-.117 20.195a16.736 16.736 0 0 0 3.1.16h2.946v-8.588Zm.716-14.851c-.394-.4-.716-3.128-.716-6.054v-5.318l4.026.55c5.72.78 8.143 4.808 5.285 8.788-1.287 1.794-7.414 3.243-8.6 2.034ZM.153 69.761c0-1.337.218-1.885.483-1.216a3.825 3.825 0 0 1 0 2.434c-.265.669-.482.12-.482-1.217Zm.136-8.76c0-2.942.179-4.147.4-2.675a21.889 21.889 0 0 1 0 5.353c-.22 1.473-.4.268-.4-2.677Z"></path>
  <path fill="#282928" d="M160.844 369.907c-23.48-17.078-52.784-44.832-69.253-65.59-49.748-62.7-73.31-133.28-76.843-230.175-.94-25.753.362-28.916 14.35-34.881q54.87-23.4 140.96-23.378c43.224.017 73.41 3.42 106.523 12.012 15.005 3.893 36.015 11.323 41.328 14.615 3.968 2.458 6.684 7.012 7.527 12.62.84 5.59-1.07 45.02-3.018 62.32-10.07 89.387-42.3 158.562-100.817 216.422-18.8 18.585-47.271 41.49-51.572 41.49-.924 0-5.058-2.453-9.185-5.455Zm-55.086-79.173a7.251 7.251 0 0 0 3.72-5.593 16.734 16.734 0 0 1 2.44-6.017c1.3-1.7 1.773-3.963 1.773-8.41 0-5.68.259-6.406 3.85-10.818a34.506 34.506 0 0 0 6.124-12.24c1.25-4.132 3.118-8.73 4.15-10.22a91.443 91.443 0 0 0 4.877-8.79c1.65-3.346 3.372-6.083 3.826-6.083 2.03 0 3.364 3.4 3.165 8.074-.254 5.965.42 8.472 2.282 8.472 1.206 0 1.2.386-.064 2.87a13.564 13.564 0 0 0-1.458 4.073c0 2.975-4.228 9.7-7.324 11.647a41.491 41.491 0 0 0-5.5 4.174q-2.041 1.945-4.21 3.747c-1.936 1.579-2.571 4.3-2.1 9.012.278 2.809 1.709 4.028 3.084 2.628 1.8-1.837 2.846-1.365 1.72.778-.926 1.764-.727 1.946 2.116 1.943 3.6 0 9.349-3.21 9.349-5.208 0-1.345 6.76-15.058 9.12-18.5a16.9 16.9 0 0 1 4.2-3.644 14.3 14.3 0 0 0 4.57-5.483c2.146-4.846 4.973-8.036 7.12-8.036.959 0 1.745.23 1.745.514 0 1.646-5.877 11.986-7.08 12.457-1.786.7-6.574 10.114-5.8 11.4.75 1.236 3.322 1.208 3.322-.036a.954.954 0 0 1 .925-.974c.508 0 .66.7.338 1.559-.837 2.222 1.267 3.18 5.064 2.308 4.973-1.143 8-3.55 8-6.36a11.034 11.034 0 0 1 2.045-5.27 7.241 7.241 0 0 0 1.483-6.352c-.553-3.47.8-8.27 2.333-8.27 1.1 0 3.295 4.6 4.637 9.732 1.87 7.163 2.6 7.575 13.5 7.575 7.234 0 9.834-.347 10.693-1.424.624-.783 1.963-2.345 2.974-3.471 1.314-1.463 1.882-3.637 1.99-7.62.128-4.65.692-6.334 3.417-10.2 4.084-5.79 12.045-11.63 13.814-10.133.675.57 2.37 3.948 3.769 7.506 2.3 5.86 2.435 6.858 1.4 10.628a19.039 19.039 0 0 0-.636 6.864 12.76 12.76 0 0 1-.84 5.985c-1.9 4.639-1.686 6.68 1 9.415 2.908 2.964 4.168 3.012 5.234.2l.832-2.19.9 2.385.9 2.384 2.535-2.583c2.86-2.914 3.168-5.416 1.154-9.384a8.313 8.313 0 0 1-.834-4.858c.3-1.176 0-4.775-.672-8-.991-4.758-.992-7.37 0-13.848 1.154-7.564 1.112-8.186-.812-11.843-3.07-5.838-2.711-6.4 2.758-4.281 8.27 3.2 16.97 1.869 20.4-3.127 2.4-3.5 2-4.795-1.273-4.127-5.074 1.034-9.121-.475-14.762-5.5l-5.428-4.838-.49-8.524c-.514-8.948-.54-14.153-.14-28.317.243-8.57.23-8.622-3.54-14.356a56.645 56.645 0 0 1-5.357-10.411 23.59 23.59 0 0 0-3.7-6.957c-2.02-2.19-2.048-2.444-.6-5.3 4.557-8.977 1.835-17.834-7.024-22.856l-5.172-2.932-24.443-.774c-31-.981-36.85-2.125-34.43-6.734 1.588-3.021 4.978-3.142 13.269-.474 8.409 2.706 17.645 3.289 22.845 1.442 3.5-1.242 3.115-2.825-.686-2.825a8.251 8.251 0 0 1-4.481-1.51c-1.737-1.414-1.612-1.477 1.967-.99 11.694 1.59 15.764 1.758 15.764.652 0-.628-1.827-1.933-4.061-2.9-13.828-5.992-31.356-6.645-41.388-1.54-5.093 2.592-9.963 7.66-9.963 10.369 0 1.794 4.659 5.529 8.238 6.605 2.038.612 14.882 1.538 28.544 2.058 26.816 1.02 31.316 1.852 34.86 6.442a9.319 9.319 0 0 1-.251 11.5l-2.172 2.572-7.445-1.566a139.8 139.8 0 0 1-15.741-4.6c-14.308-5.226-14.38-5.213-25.722 4.439a124.974 124.974 0 0 1-16.692 11.347c-13.6 7.574-16.348 11.938-18.454 29.337-.4 3.258-1.962 6.77-5.43 12.166-7.32 11.389-9.385 16.649-10.344 26.334a81.681 81.681 0 0 1-3.733 16.776c-2.407 6.886-2.894 9.76-2.9 17.152-.011 7.558-.357 9.515-2.325 13.139a30.905 30.905 0 0 0-2.918 9.126c-1.026 8.25-1.358 9.067-5.686 14.03-2.31 2.65-4.511 5.834-4.892 7.073a20.2 20.2 0 0 1-3.414 5.436c-3.038 3.547-4.244 7.144-3.258 9.712.572 1.49.956 1.339 3.057-1.214l2.4-2.92-.61 3.649-.596 3.645h4.1a15.213 15.213 0 0 0 7.157-1.9Zm73.341-204.491c-.991-1.634-.215-1.718 3.383-.366l3.344 1.256-3.05.074c-1.675.04-3.331-.393-3.677-.964Zm-146.275 83.52c-4.471-23.364-7.416-49.876-8.893-80.05-1.554-31.737-1.59-32.1-3.375-34.881-.916-1.424-2.045-2.59-2.51-2.59-2.767 0 .84 55.21 5.469 83.7 2.654 16.335 8.609 40.878 9.92 40.878.406 0 .132-3.175-.611-7.056Zm16.855-90.511c0-2.008-.146-3.65-.326-3.65s-2.831.878-5.89 1.949-5.781 1.724-6.052 1.448-.686-7.722-.923-16.548-.777-16.047-1.2-16.047a14.974 14.974 0 0 0-3.22.949l-2.451.949V90.11l10.029-3.6 10.029-3.605v-3.65Zm260.12-31.008a9.9 9.9 0 0 0-3.362-1.391l-2.627-.661v41.082l3.1 1.292 3.1 1.29.259-20.44c.142-11.243-.073-20.77-.477-21.172ZM297.122 63.98c0-11.21-.322-20.574-.717-20.811a22.115 22.115 0 0 0-3.914-1.13l-3.2-.7.33 9.832c.184 5.407.117 9.828-.145 9.824s-2.311-4.712-4.551-10.463c-4.985-12.805-4.783-12.491-8.586-13.332l-3.105-.686v20.46c0 11.252.322 20.643.717 20.868a20.16 20.16 0 0 0 3.344 1.049l2.627.64V68.126c0-6.273.359-10.99.8-10.481s2.877 6.332 5.419 12.94c4.5 11.7 5.792 13.508 9.787 13.714.918.048 1.194-4.631 1.194-20.32ZM55.239 81.357c2.656-.942 3.1-1.666 4.069-6.712 1-5.173 1.338-5.706 3.973-6.242 4.316-.88 4.338-.866 4.993 3.082.939 5.664 1.5 6.167 5.573 5.02 1.947-.547 3.539-1.227 3.539-1.511s-1.661-6.724-3.692-14.311-4.266-16.107-4.966-18.937c-1.247-5.036-1.335-5.132-4.19-4.521a11.116 11.116 0 0 0-3.6 1.27c-.693.652-10.281 40.43-10.292 42.7-.008 1.493.772 1.52 4.6.162Zm7.232-22.485a31.281 31.281 0 0 0 .585-4.512c0-2.458 1.6-.03 2.218 3.377.464 2.535.22 3.15-1.414 3.587-1.76.469-1.91.2-1.39-2.452Zm261.317 3.59c.06-7.014-.6-11.192-1.756-11.192a6.76 6.76 0 0 0-2.38 1.28c-1.644 1.225-1.647 1.732-.093 11.922.895 5.854 1.87 11.3 2.17 12.1.787 2.108 1.99-6.147 2.059-14.113Zm-57.238-6.69v-20.8l-3.02-.615a10.2 10.2 0 0 0-3.211-.365c-.106.138-.477 9.293-.823 20.344l-.63 20.094 3.6.975c1.98.535 3.71 1.02 3.842 1.074s.238-9.262.238-20.7ZM85.747 74.014c2.032-.555 2.154-1.1 2.24-9.963l.092-9.376 3.105 9.5a97.287 97.287 0 0 0 3.622 10.028c.285.29 1.388-2.452 2.452-6.094l3.353-11.487 1.417-4.866.1 9.822.1 9.822 3.583-.6 3.583-.6-.36-20.415c-.2-11.23-.473-20.551-.612-20.715a9.539 9.539 0 0 0-3.43.539c-3.1.818-3.26 1.122-6.51 12.352l-3.333 11.516-3.471-10.594c-3.426-10.456-3.507-10.588-6.253-10.266a8.442 8.442 0 0 0-3.445.974c-.364.355-.794 9.734-.955 20.842-.317 21.819-.513 21.01 4.722 19.58Zm167.429-20.74c0-11.21-.322-20.581-.717-20.827a13.726 13.726 0 0 0-3.582-.787l-2.866-.341-.28 7.542c-.275 7.485-.3 7.543-2.865 7.53-6.45-.033-6.787-.467-7.088-9.094l-.275-7.926-3.1-.305-3.1-.305v20.4c0 21.815-.053 21.578 4.82 21.578 1.609 0 1.824-.938 2.07-9l.275-9 3.82.336a18.685 18.685 0 0 1 4.539.786c.4.248.717 4.557.717 9.577v9.127l3.1.392c1.708.217 3.428.463 3.82.549s.712-9.022.712-20.232ZM131.584 67.261c6.255-2.586 8.93-12.18 5.155-18.486-1.542-2.575-1.606-3.232-.474-4.81 1.792-2.5 1.662-10.243-.218-12.98-2.31-3.357-5.74-4.25-13.5-3.508l-6.943.663v41.674l6.449-.64a43.873 43.873 0 0 0 9.532-1.914Zm-8.906-6.634a19.938 19.938 0 0 1-.21-5.6c.272-3.846.554-4.277 2.985-4.562 3.75-.438 5.436 1.362 5.436 5.81 0 3.182-.4 3.952-2.451 4.747-3.385 1.312-5.163 1.188-5.76-.4Zm-.388-21.417c0-3.71.306-4.353 2.312-4.866 3.224-.823 5.246.186 5.93 2.96.77 3.123-1.963 6.18-5.524 6.18-2.575 0-2.718-.226-2.718-4.274Zm95.924 28.47c3.458-1.6 5.346-6.458 5.346-13.748v-6.29l-4.433-.62c-6.96-.971-7.032-.942-7.032 2.788 0 2.758.364 3.407 1.91 3.407 2.777 0 2.81 7.364.037 8.26-4.854 1.57-7.665-3.873-7.674-14.861-.007-8.166 1.923-12.864 5.283-12.864 1.935 0 2.776.693 3.626 2.983 1.02 2.756 1.36 2.936 4.455 2.347a18.065 18.065 0 0 0 3.645-.932c.163-.162-.324-1.8-1.08-3.643-4.191-10.223-16.574-11-20.784-1.3-2.54 5.852-3.31 15.224-1.84 22.437 1.61 7.9 6.505 13.146 12.265 13.146a18.285 18.285 0 0 0 6.276-1.108Zm-58.11-1.7c4.262-2.647 6.406-8.006 6.9-17.231.787-14.857-3.856-23.756-12.4-23.756-3.077 0-4.475.643-7.006 3.222-4.216 4.3-5.53 9.759-5.082 21.129.292 7.422.784 9.956 2.473 12.739 3.5 5.77 9.576 7.338 15.115 3.9Zm-7.626-6.481c-4.9-4.992-4.036-25.158 1.166-27.192 6.083-2.377 8.963 20.619 3.372 26.913-1.931 2.173-2.637 2.214-4.538.279Zm43.375 7.526c0-.435-1.282-4.655-2.85-9.38l-2.85-8.59 2.955-3.428c2.687-3.117 2.917-3.9 2.53-8.633-.712-8.765-5.464-11.985-17.7-12h-5.971v41.85h7.642v-8.76c0-11.678 1.594-11.692 5.714-.055 2.71 7.657 3.386 8.752 5.61 9.1 4.52.708 4.92.7 4.92-.1ZM179.612 37.41v-5.214l3.31.394c4.168.5 5.5 2.114 5.115 6.208-.287 3.043-.535 3.244-4.364 3.526l-4.061.3ZM25.758 46.16c.07-1.285-3.284-.78-5.55.836l-2.192 1.564 2.178 2.362 2.178 2.36 1.673-3.195a20.276 20.276 0 0 0 1.713-3.926Z"></path>
  <path fill="#040404" d="M155.699 365.264C88.531 313.797 46.99 250.602 27.73 170.59A480.058 480.058 0 0 1 15.289 65.274c0-18.22 1.28-20.225 16.968-26.574 50.4-20.4 125.209-27.581 197.99-19.014 36.837 4.337 83.445 17.894 90.782 26.408 2.98 3.457 3.671 5.422 1.65 4.678-.658-.242-2.18.335-3.384 1.282-2.185 1.717-2.188 1.743-.8 9.958.762 4.532 1.692 12.946 2.065 18.7s1 10.463 1.394 10.463c1.267 0 1.895-6.923 2.12-23.358l.218-16.06.335 13.14c.627 24.676-2.95 61.366-8.88 91.059-11.058 55.388-32.541 103.252-65.06 144.955-20.511 26.3-72.372 73.481-80.778 73.481-1.414 0-6.867-3.5-14.208-9.128Zm23.048 1.208c12.465-8.2 24.653-18.635 38.717-33.141 19.285-19.895 30.459-33.171 34.322-40.782 1.181-2.325 1.126-2.773-.54-4.307-1.8-1.663-2.24-1.327-15.01 11.516-15.966 16.057-27.009 25.132-27.009 22.2 0-1.738-12.368-8.878-19.749-11.4-13.187-4.509-27.5-4.1-39.2 1.126l-4.97 2.22-1.59-5.522c-4.492-15.594-7.016-36.315-4.618-37.912.578-.384 2.247-3.434 3.71-6.776a27.2 27.2 0 0 1 7.632-10.4c3.007-2.618 5.32-5.562 5.851-7.451.9-3.212 5.132-7.236 6.934-6.6 1.556.55-1.871 7.506-6.221 12.625a37.018 37.018 0 0 0-5.07 7.6c-1.106 2.722-1.071 3.337.267 4.7 1.416 1.443 1.6 1.418 2.248-.307.643-1.7.759-1.654 1.269.557.735 3.185 3.579 3.553 8.9 1.155 3.713-1.673 4.267-2.34 4.807-5.777.335-2.137 1.29-4.46 2.122-5.163 1.017-.86 1.433-2.575 1.272-5.236-.254-4.147.8-9.31 1.906-9.31 1.152 0 3.732 5.256 4.421 9.011a16.8 16.8 0 0 0 2.551 6.078c1.777 2.3 2.362 2.425 11.72 2.425h9.849l2.719-3.632c2.107-2.815 2.752-4.774 2.869-8.724.2-6.907 3.691-12.753 10.626-17.812l5.444-3.972 1.554 2.1a40.5 40.5 0 0 1 3.583 7.844c1.584 4.486 1.816 6.317 1.058 8.349a39.523 39.523 0 0 0-1.332 8.5c-.2 3.24-.647 7.47-1 9.4-.552 3.055-.3 3.778 1.97 5.6 3.29 2.636 4.11 2.62 5.185-.1.626-1.586.881-1.736.924-.544.1 2.78 1.995 3.051 4.508.646 2.041-1.952 2.31-2.869 1.824-6.184q-.73-5.1-1.395-10.219a51.925 51.925 0 0 0-1.532-8.065c-.39-.956-.164-5.777.5-10.712 1.153-8.555 1.114-9.164-.84-13.065-2.8-5.6-2.617-6.463.972-4.573 4.143 2.182 13.37 2.927 17.041 1.378 3.12-1.316 6.69-5.257 6.69-7.385 0-.956-1.156-1.148-4.54-.751-3.766.44-5.048.143-7.55-1.75-1.656-1.253-4.78-3.594-6.943-5.2-3.74-2.777-3.906-3.114-3.4-6.928.3-2.277-.146-7.061-1.044-11.076-.867-3.886-1.32-8.433-1.005-10.1s1-5.138 1.518-7.707c1.306-6.45-.254-13.048-4.708-19.919a49.393 49.393 0 0 1-4.827-9.475 29.387 29.387 0 0 0-3.061-6.58c-1.78-2.587-1.79-2.876-.233-7.65 3.068-9.413-.1-17.066-8.85-21.414-4.253-2.111-6.159-2.314-27.97-2.957-20.968-.619-31.874-1.662-34.467-3.294-1.776-1.119-.85-4.39 1.562-5.509 2.052-.953 3.775-.683 10.748 1.68 8.887 3.01 18.238 3.631 23.408 1.552 3.438-1.382 2.666-2.61-2.13-3.39-2.083-.34-4.053-1.056-4.378-1.589-.813-1.34 1.224-1.218 8.536.51 5.912 1.4 11.052 1.167 11.052-.493 0-1.071-8.07-4.45-14.947-6.257-7.764-2.042-21.63-2.011-27.931.062-5.8 1.91-12.066 7.068-12.952 10.668-.8 3.253 1.874 6.39 6.89 8.075 2.013.676 15.185 1.732 30.31 2.429 28.425 1.31 31.022 1.81 34.336 6.63a9.489 9.489 0 0 1-.724 11.063c-2.17 2.57-2.32 2.6-7.4 1.452-2.854-.643-10.793-3.028-17.645-5.3-9.655-3.2-13.093-3.949-15.285-3.334-1.557.436-6.055 3.632-10 7.1a105.276 105.276 0 0 1-16.507 11.312c-13.169 7.068-17.206 12.567-18.834 25.647-.915 7.358-2.5 11.158-9.146 21.887-4.534 7.323-7.1 14.742-7.1 20.548 0 2.99-1.3 8.825-3.344 15.063-2.821 8.591-3.344 11.533-3.344 18.836 0 7.322-.368 9.382-2.385 13.37a33.747 33.747 0 0 0-2.928 9.578c-.894 8.021-1.109 8.534-6.112 14.557-2.648 3.188-4.816 6.583-4.816 7.543s-.415 1.745-.921 1.745c-1.6 0-5.767 7.152-5.767 9.9 0 3.675 1.832 4.452 3.945 1.675l1.772-2.33-.59 3.164c-.512 2.747-.328 3.163 1.4 3.163 1.374 0 2.794 1.432 4.582 4.622 10.111 18.037 32.42 44.527 49.08 58.28 8.409 6.94 19.946 14.958 21.525 14.958.61 0 3.863-1.812 7.227-4.025Zm-65.086-89.812a25.127 25.127 0 0 0 .845-7.341c-.087-3.944.4-5.452 2.752-8.5a35.4 35.4 0 0 0 6.935-13.891c1.232-4.668 11.193-24.365 12.32-24.365 1.993 0 2.974 2.935 2.974 8.906 0 4.923.37 6.781 1.481 7.414 2.43 1.386-1.041 11.3-5.5 15.707-5.783 5.714-8.7 8.266-11.48 10.043-1.893 1.211-2.8 2.773-3.241 5.6-.338 2.154-.956 3.917-1.375 3.917s-2.088 1.139-3.712 2.53l-2.952 2.532.951-2.548Zm65.951-190.352c-1.183-.78-1.1-.935.478-.891a12.332 12.332 0 0 1 3.821.89c1.75.766 1.71.841-.478.89a7.917 7.917 0 0 1-3.821-.89ZM44.299 210.154c-1.787-5.755-5.164-18.346-7.5-27.98-8.01-33.014-10.692-55.261-13.45-111.575-.47-9.574-1-12.974-2.41-15.329-2.124-3.56-3.718-3.91-3.812-.837-1.22 39.955 5.245 90.782 16.265 127.878 4.785 16.108 12.6 38.306 13.486 38.306.374-.001-.786-4.709-2.579-10.463Zm29.74-57.151c18.587-4.986 35.931-19.564 44.036-37.012.994-2.14 1.842-4.111 1.884-4.379s.888-3.115 1.88-6.326c1.34-4.33 1.816-8.86 1.843-17.52.04-13.1-.658-16.975-3.086-17.15-.91-.066.807-.487 3.815-.935 10.37-1.548 14.116-5.36 14.116-14.362 0-3.293-.577-5.53-1.833-7.1-1.718-2.152-1.733-2.412-.239-4.1 1.04-1.176 1.6-3.494 1.6-6.65 0-4.24-.387-5.2-3.12-7.683-3.29-2.994-7.557-3.595-15.748-2.215l-3.583.6v12.927c0 7.112-.26 13.625-.58 14.471a3.161 3.161 0 0 1-2.866 1.539h-2.286V42.996c0-13.99-.02-14.113-2.15-14.1-5.568.034-5.975.575-9.347 12.408l-3.22 11.307-3.356-10.408-3.362-10.409-3.375.62a22.215 22.215 0 0 0-4.092 1.034c-.394.229-.716 6.475-.716 13.879V60.79l-2.527.645c-1.39.355-2.832.293-3.205-.137s-2.01-5.983-3.638-12.335-3.151-11.747-3.385-11.986-1.948-.143-3.807.212l-3.38.646-2.513 10.853c-4.544 19.628-3.657 17.806-9.325 19.155a66.973 66.973 0 0 0-8.109 2.478l-3.1 1.287V58.416c0-11.67-.176-13.125-1.522-12.6-.837.327-2.58.865-3.87 1.195l-2.348.6.362 22.023c.4 24.292 1.628 33.087 7.75 55.714 4.675 17.273 8.89 28.032 11.422 29.157 2.852 1.271 18.067.353 24.984-1.502Zm-11.562-93.54a12.3 12.3 0 0 0 .58-3.6c0-2.66 1.464-1.081 2.283 2.463.527 2.279.318 2.677-1.412 2.677-1.46 0-1.868-.434-1.45-1.54Zm60.768-3.214c0-4.052.3-4.834 2.066-5.3 3.32-.885 5.577.954 5.577 4.542 0 3.894-1.458 5.514-4.968 5.514-2.564 0-2.675-.2-2.675-4.754ZM88.533 59.38a3.6 3.6 0 0 1-.608-2.19c.024-1.266.21-1.224 1.044.235 1.03 1.803.73 3.142-.436 1.955Zm12.89-3.243c0-1.34.217-1.887.481-1.217a3.806 3.806 0 0 1 0 2.432c-.264.67-.481.123-.481-1.218Zm21.822-17.032c0-4.357.018-4.38 3.344-4.38 3.356 0 3.893.77 3.39 4.866-.231 1.892-2.806 3.893-5.006 3.893-1.412 0-1.728-.8-1.728-4.38Zm184.332 88.138c2.686-6.812 6.763-31.536 6.71-40.686a23.911 23.911 0 0 0-1.88-9.5c-1.528-3.225-1.851-6.08-1.878-16.627l-.03-12.727-3.316-1.035-3.317-1.034-.267 11.819c-.253 11.195-.368 11.807-2.177 11.532-4.308-.652-4.3-.624-4.3-13.67V42.754l-2.986-.608a32.747 32.747 0 0 0-3.82-.608c-.461 0-.854 4.27-.874 9.489l-.037 9.49-4.354-10.706c-2.393-5.889-4.634-10.988-4.978-11.334a11.569 11.569 0 0 0-3.73-1.295l-3.106-.665v12.727c0 12.635-.015 12.73-2.2 12.73-4 0-4.49-1.592-4.49-14.68 0-11.98-.063-12.362-2.15-12.931-5.593-1.527-5.493-1.757-5.493 12.639v13.252l-2.15-.586a18.472 18.472 0 0 0-2.865-.6c-.395-.008-.717-6.09-.717-13.518v-13.5l-2.985-.609a32.622 32.622 0 0 0-3.822-.607c-.46 0-.836 3.5-.836 7.785 0 8.4.052 8.332-5.576 7.186l-2.95-.6-.274-7.915-.276-7.916-3.583-.3-3.583-.3v41.748l3.374.4c1.855.221 3.575.2 3.821-.055s.448-4.325.448-9.054c0-9.292-.1-9.153 5.613-7.989l2.986.607.06 7.422c.067 8.243 1.4 26.78 2.139 29.806 3.7 15.076 15.559 29.012 29.457 34.608 7.362 2.964 11.681 3.7 21.087 3.573 7.99-.1 8.359-.206 9.3-2.6Zm-26.164-63.565c-1-3.347-1.23-5.547-.537-5.112 1.285.809 2.887 6.329 1.837 6.329a1.62 1.62 0 0 1-1.3-1.217Zm-61.921 3.586c3.074-2.052 4.066-5.232 4.066-13.023 0-7.4-.4-7.8-7.88-7.823-3.545-.013-3.583.027-3.583 3.879 0 3.244.318 3.893 1.91 3.893 1.469 0 1.911.65 1.911 2.8 0 4.1-2.221 5.64-5.234 3.63s-3.842-5.08-3.842-14.26c0-11.142 4.25-16.321 7.927-9.66 1.392 2.521 2.112 2.909 4.971 2.676 3-.245 3.324-.548 3.163-2.96-.427-6.33-7.941-11.639-14.21-10.037-3.751.96-7.646 5.642-8.9 10.693-2.334 9.446-.586 22.534 3.76 28.164 3.448 4.466 10.867 5.41 15.937 2.027Zm-58.21-1.879c4.009-3.437 6.049-9.358 6.2-17.99.243-14.255-4.205-22.4-12.228-22.4-8.459 0-13.358 8.032-13.358 21.9 0 9.019 2.166 15.96 5.92 18.967 3.561 2.854 9.836 2.634 13.466-.477Zm-9.5-6.962c-.86-1.055-1.4-4.819-1.581-10.95-.3-10.329.807-14 4.375-14.521 3.5-.513 5.271 5.225 4.788 15.54-.41 8.7-1.538 11.538-4.594 11.538a4.55 4.55 0 0 1-2.988-1.607Zm27.625.39c.37-11.381 1.928-11.317 5.987.242l3.076 8.76h4.167a17.583 17.583 0 0 0 4.135-.244c-.018-.133-1.446-4.338-3.173-9.344l-3.143-9.1 2.7-2.748c2.244-2.286 2.7-3.57 2.7-7.643 0-10.089-3.289-12.964-15.525-13.57l-8.36-.415v20.963c0 22.336-.034 22.178 4.777 21.8 2.33-.181 2.4-.4 2.665-8.7Zm.2-21.168c0-4.857.007-4.867 3.154-4.867 3.8 0 5.445 1.473 5.445 4.867s-1.649 4.866-5.445 4.866c-3.142 0-3.149-.01-3.149-4.866ZM23.887 51.924c0-.647 1.09-2.811 2.423-4.81 1.942-2.91 2.124-3.632.917-3.632-1.656 0-9.073 3.63-9.073 4.44a15.881 15.881 0 0 0 2.062 3.348c2 2.757 3.67 3.055 3.67.653Zm55.619-22.52a552.46 552.46 0 0 1 121.6-6.324c17.15.943 46.231 3.82 57.8 5.719 5.017.823 6.65.7 5.544-.431-.818-.834-23.246-5.088-35.162-6.668-22.35-2.966-40.04-3.765-72.076-3.255-33.342.532-47.426 1.773-69.318 6.112-16.217 3.214-29.88 7.246-24.552 7.246.859 0 8.13-1.078 16.162-2.4Z"></path>
</svg>
